<svg width="16" height="16" viewBox="0 0 16 16" fill="none" xmlns="http://www.w3.org/2000/svg">
<rect width="16" height="16" rx="8" fill="#FFE549"/>
<path d="M9.4744 10.1977C9.4744 10.1977 9.92237 8.6157 9.3311 6.84354C9.26718 6.65196 10.0681 5.65138 10.7704 4.95556C11.5628 4.17031 12.2554 4.12356 12.7214 4.53254C12.8956 4.68542 13.0453 4.91578 13.0981 5.44285C13.161 6.06961 13.1029 6.96719 12.5526 8.0536C12.0023 9.14 10.9482 9.45463 10.9482 9.45463C10.9482 9.45463 11.571 9.91344 11.8947 10.4045C12.2184 10.8955 12.2904 11.6544 11.9169 12.3017C11.7007 12.6764 11.1243 13.2074 10.1768 12.9468C9.33074 12.7141 8.68752 11.8597 8.87829 11.5404C9.19349 11.0128 9.4744 10.1977 9.4744 10.1977Z" fill="#195F5F"/>
<path d="M3.88999 12.0683C3.91638 12.6305 4.51481 13.2814 5.4202 13.3553C6.12439 13.4129 7.05805 12.8877 7.70524 12.2207C8.48591 11.416 8.81356 10.2132 8.8678 9.94551C8.92204 9.67782 9.45597 7.53162 7.79006 5.48869C6.82696 4.30762 5.40475 3.06453 3.95453 3.48133C3.55901 3.595 2.91033 4.12692 3.16564 6.60064C3.41074 8.97541 5.47654 9.57443 5.47654 9.57443C5.47654 9.57443 3.79684 10.0841 3.88999 12.0683Z" fill="#195F5F"/>
</svg>
