<svg xmlns="http://www.w3.org/2000/svg" viewBox="0 0 512 512" id="badge">
  <defs>
    <linearGradient id="b" x1="381.16" x2="130.85" y1="402.72" y2="152.42" gradientUnits="userSpaceOnUse">
      <stop offset="0" stop-color="#6f2efe"></stop>
      <stop offset=".53" stop-color="#6f2efe"></stop>
      <stop offset="1" stop-color="#ae90ff"></stop>
    </linearGradient>
    <linearGradient id="c" x1="314.45" x2="174.96" y1="358.55" y2="219.06" gradientUnits="userSpaceOnUse">
      <stop offset="0" stop-color="#e0dcff"></stop>
      <stop offset=".57" stop-color="#fff"></stop>
      <stop offset="1" stop-color="#fff"></stop>
    </linearGradient>
    <linearGradient id="d" x1="292.8" x2="219.21" y1="189.33" y2="115.74" gradientUnits="userSpaceOnUse">
      <stop offset="0" stop-color="#34344f"></stop>
      <stop offset="1" stop-color="#666684"></stop>
    </linearGradient>
    <radialGradient id="a" cx="256" cy="-1172.27" r="200.83" gradientTransform="matrix(1 0 0 .45 0 942.02)" gradientUnits="userSpaceOnUse">
      <stop offset="0" stop-color="#6f2efe" stop-opacity=".6"></stop>
      <stop offset="1" stop-color="#6f2efe" stop-opacity="0"></stop>
    </radialGradient>
  </defs>
  <g>
    <path fill="#f2eeff" d="M496.52,129.86C483.09,80.38,431.63,28.92,382.15,15.49,351.82,7.92,311.17.13,256,0c-55.16.14-95.81,7.92-126.14,15.49C80.38,28.93,28.92,80.38,15.49,129.86,7.92,160.19.14,200.84,0,256c.14,55.17,7.92,95.82,15.49,126.15,13.43,49.48,64.89,100.93,114.37,114.37,30.33,7.57,71,15.35,126.14,15.49,55.17-.14,95.82-7.92,126.15-15.49,49.48-13.44,100.94-64.89,114.37-114.37,7.57-30.33,15.35-71,15.49-126.15C511.87,200.84,504.09,160.19,496.52,129.86Z"></path>
    <path fill="url(#a)" d="M444.68,366.22c-10.54-17.59-50.9-35.87-89.72-40.64a862.45,862.45,0,0,0-99-5.51,862.3,862.3,0,0,0-99,5.51c-38.82,4.77-79.18,23.05-89.72,40.64C61.38,377,55.27,391.44,55.17,411c.1,19.6,6.21,34,12.15,44.83,10.54,17.58,50.9,35.86,89.72,40.64a865.2,865.2,0,0,0,99,5.5,865.2,865.2,0,0,0,99-5.5c38.82-4.78,79.18-23.06,89.72-40.64,5.94-10.78,12.05-25.23,12.15-44.83C456.73,391.44,450.62,377,444.68,366.22Z"></path>
    <path fill="url(#b)" d="M426.08,277.57c-.05-29.08-3.24-56.75-6.49-72.41-5.71-25.79-30.72-49.42-56.57-54.43-15.76-3.15-77.95-7-107-6.72-29.06-.32-91.25,3.57-107,6.72-25.86,5-50.86,28.64-56.57,54.43-3.25,15.66-6.44,43.33-6.49,72.41s3.24,56.76,6.49,72.42c5.71,25.79,30.72,49.41,56.57,54.43,15.76,3.15,77.94,7,107,6.72,29.07.32,91.26-3.57,107-6.72,25.86-5,50.86-28.64,56.57-54.43C422.84,334.33,426,306.65,426.08,277.57Z"></path>
    <path fill="url(#c)" d="M182.7,224.6a32.08,32.08,0,1,1-32.07,32.07A32.07,32.07,0,0,1,182.7,224.6Zm53.53,109.5,0,.14A23.18,23.18,0,0,1,230.53,347a22.24,22.24,0,0,1-11.94,7.22c-6.61,1.5-23.12,3-33.42,2.91-10.3.25-30.53-1.35-37.15-2.92A22.31,22.31,0,0,1,136.08,347a23.24,23.24,0,0,1-5.67-12.73l0-.14a74,74,0,0,1-.32-10.26,50.88,50.88,0,0,1,.32-8.5l0-.14a19.7,19.7,0,0,1,5.7-11.88,20.09,20.09,0,0,1,12-5.77c6.64-.7,26.83-1.08,37.09-1.08s26.73.38,33.36,1.08a20.09,20.09,0,0,1,12,5.77,19.73,19.73,0,0,1,5.7,11.89v.14a71.75,71.75,0,0,1,.5,8.49A96.75,96.75,0,0,1,236.23,334.1Zm99.5-3H270.59a14.79,14.79,0,0,1,0-29.58h65.14a14.79,14.79,0,1,1,0,29.58Zm31.47-51H270.59a14.79,14.79,0,1,1,0-29.58H367.2a14.79,14.79,0,1,1,0,29.58Z"></path>
    <path fill="url(#d)" d="M220.26,185.51c1.49,7.67,8.5,15.09,16.15,16.79a101,101,0,0,0,39.19,0c7.65-1.7,14.66-9.12,16.15-16.79.93-4.67,2.08-24.35,2-33,.09-8.63-1.06-28.3-2-33-1.49-7.67-8.5-15.09-16.15-16.78a100.44,100.44,0,0,0-39.19,0c-7.65,1.69-14.66,9.11-16.15,16.78-.93,4.68-2.08,24.35-2,33C218.18,161.16,219.33,180.84,220.26,185.51Z"></path>
  </g>
</svg>
