<svg xmlns="http://www.w3.org/2000/svg" xmlns:xlink="http://www.w3.org/1999/xlink" viewBox="0 0 512 512" id="school">
  <defs>
    <linearGradient id="c" x1="363.51" x2="148.5" y1="389.85" y2="174.83" gradientUnits="userSpaceOnUse">
      <stop offset="0" stop-color="#13b601"></stop>
      <stop offset=".5" stop-color="#13b601"></stop>
      <stop offset=".68" stop-color="#5bce47"></stop>
      <stop offset=".9" stop-color="#abe995"></stop>
      <stop offset="1" stop-color="#cbf4b4"></stop>
    </linearGradient>
    <linearGradient id="d" x1="331.25" x2="180.76" y1="378.21" y2="227.72" gradientUnits="userSpaceOnUse">
      <stop offset="0" stop-color="#cbf4b4"></stop>
      <stop offset=".57" stop-color="#fff"></stop>
      <stop offset="1" stop-color="#fff"></stop>
    </linearGradient>
    <linearGradient id="a" x1="276.17" x2="235.84" y1="261.55" y2="221.22" gradientUnits="userSpaceOnUse">
      <stop offset="0" stop-color="#34344f"></stop>
      <stop offset="1" stop-color="#666684"></stop>
    </linearGradient>
    <linearGradient xlink:href="#a" id="e" x1="290.5" x2="221.51" y1="424.86" y2="355.87"></linearGradient>
    <linearGradient xlink:href="#a" id="f" x1="331.43" x2="178.73" y1="238.64" y2="85.95"></linearGradient>
    <radialGradient id="b" cx="256" cy="-1927.56" r="200.83" gradientTransform="matrix(1 0 0 .45 0 1284.14)" gradientUnits="userSpaceOnUse">
      <stop offset="0" stop-color="#13b601" stop-opacity=".6"></stop>
      <stop offset="1" stop-color="#13b601" stop-opacity="0"></stop>
    </radialGradient>
  </defs>
  <g>
    <path fill="#e5f4d9" d="M496.52,129.86C483.09,80.38,431.63,28.92,382.15,15.49,351.82,7.92,311.17.13,256,0c-55.16.14-95.81,7.92-126.14,15.49C80.38,28.93,28.92,80.38,15.49,129.86,7.92,160.19.14,200.84,0,256c.14,55.17,7.92,95.82,15.49,126.15,13.43,49.48,64.89,100.93,114.37,114.37,30.33,7.57,71,15.35,126.14,15.49,55.17-.14,95.82-7.92,126.15-15.49,49.48-13.44,100.94-64.89,114.37-114.37,7.57-30.33,15.35-71,15.49-126.15C511.87,200.84,504.09,160.19,496.52,129.86Z"></path>
    <path fill="url(#b)" d="M444.68,366.22c-10.54-17.59-50.9-35.87-89.72-40.64a862.45,862.45,0,0,0-99-5.51,862.3,862.3,0,0,0-99,5.51c-38.82,4.77-79.18,23.05-89.72,40.64C61.38,377,55.27,391.44,55.17,411c.1,19.6,6.21,34,12.15,44.83,10.54,17.58,50.9,35.86,89.72,40.64a865.2,865.2,0,0,0,99,5.5,865.2,865.2,0,0,0,99-5.5c38.82-4.78,79.18-23.06,89.72-40.64,5.94-10.78,12.05-25.23,12.15-44.83C456.73,391.44,450.62,377,444.68,366.22Z"></path>
    <path fill="url(#c)" d="M236.33,425.52c6.11.35,12.66.55,19.67.56s13.58-.21,19.69-.56c9.84-.41,18.62-1.59,18.62-1.59,9.85-1.15,18.26-2.63,25.43-4.12,24.89-5.51,47.7-29.64,52.54-54.6,3-15.21,6.8-80.52,6.49-108.58.1-9.83-1.57-45.65-2.76-69.31q-33.72,3-67.48,4.47a10.8,10.8,0,0,1-9-4.09c-9.33-11.4-19.8-23.12-30.59-35a16.31,16.31,0,0,0-24.46,0c-10.79,11.84-21.28,23.57-30.65,35a10.89,10.89,0,0,1-9,4.11q-34.44-1.38-68.85-4.53c-1.19,23.66-2.86,59.48-2.76,69.31-.31,28.06,3.45,93.38,6.49,108.58,4.84,25,27.64,49.09,52.54,54.6,7.18,1.5,15.59,3,25.45,4.12C217.72,423.93,226.45,425.11,236.33,425.52Z"></path>
    <path fill="url(#d)" d="M199.77,357.92a10.74,10.74,0,0,1-8.27,8.27,66.5,66.5,0,0,1-20.31,0,10.74,10.74,0,0,1-8.27-8.27c-.4-2.41-.78-13.34-.78-17.81s.38-15.41.78-17.81a10.73,10.73,0,0,1,8.27-8.27,66.5,66.5,0,0,1,20.31,0,10.73,10.73,0,0,1,8.27,8.27c.4,2.4.78,13.33.78,17.81S200.17,355.51,199.77,357.92Zm0-74.29a10.73,10.73,0,0,1-8.27,8.27,66.5,66.5,0,0,1-20.31,0,10.73,10.73,0,0,1-8.27-8.27c-.4-2.4-.78-13.33-.78-17.81s.38-15.4.78-17.81a10.74,10.74,0,0,1,8.27-8.27,66.5,66.5,0,0,1,20.31,0,10.74,10.74,0,0,1,8.27,8.27c.4,2.41.78,13.34.78,17.81S200.17,281.23,199.77,283.63Zm149.32,74.29a10.74,10.74,0,0,1-8.27,8.27,66.5,66.5,0,0,1-20.31,0,10.74,10.74,0,0,1-8.27-8.27c-.4-2.41-.78-13.34-.78-17.81s.38-15.41.78-17.81a10.73,10.73,0,0,1,8.27-8.27,66.5,66.5,0,0,1,20.31,0,10.73,10.73,0,0,1,8.27,8.27c.4,2.4.78,13.33.78,17.81S349.49,355.51,349.09,357.92Zm0-74.29a10.73,10.73,0,0,1-8.27,8.27,66.5,66.5,0,0,1-20.31,0,10.73,10.73,0,0,1-8.27-8.27c-.4-2.4-.78-13.33-.78-17.81s.38-15.4.78-17.81a10.74,10.74,0,0,1,8.27-8.27,66.5,66.5,0,0,1,20.31,0,10.74,10.74,0,0,1,8.27,8.27c.4,2.41.78,13.34.78,17.81S349.49,281.23,349.09,283.63Z"></path>
    <circle cx="256" cy="241.38" r="28.52" fill="url(#a)"></circle>
    <path fill="url(#e)" d="M282.9,348.26a26.88,26.88,0,0,0-16.37-7.77h-.14c-2.42-.24-5-.36-7.57-.37h-5.63c-2.6,0-5.15.13-7.57.37h-.14a26.6,26.6,0,0,0-24,24.26c-.42,4.61-.54,42-.54,59.57,3.42.38,9.16.94,15.36,1.2s12.66.55,19.67.56,13.58-.21,19.69-.56,11.91-.82,15.35-1.2c0-17.6-.12-55-.54-59.57A26.85,26.85,0,0,0,282.9,348.26Z"></path>
    <path fill="url(#f)" d="M269,152.74c10.78,11.84,21.26,23.56,30.59,35a10.8,10.8,0,0,0,9,4.09q34.14-1.41,68.24-4.53c11.25-1.18,22.21-14.82,16.54-23.38-12.39-19.42-30.5-40.78-49.66-63.66-6.3-7.46-14.88-12.25-23.11-12.67a1283.54,1283.54,0,0,0-132.9.2c-8.6.46-17.64,5.69-24,13.67C145.78,124,129.32,145,118.43,164.33c-5.05,8.64,5.82,21.78,16.8,22.93q34.8,3.15,69.62,4.59a10.89,10.89,0,0,0,9-4.11c9.37-11.42,19.86-23.15,30.65-35A16.31,16.31,0,0,1,269,152.74Z"></path>
  </g>
</svg>
