<svg xmlns="http://www.w3.org/2000/svg" xmlns:xlink="http://www.w3.org/1999/xlink" viewBox="0 0 512 512" id="online-class">
  <defs>
    <linearGradient id="f" x1="394.43" x2="264.02" y1="411.05" y2="280.64" gradientUnits="userSpaceOnUse">
      <stop offset="0" stop-color="#78a0b5"></stop>
      <stop offset=".43" stop-color="#78a0b5"></stop>
      <stop offset="1" stop-color="#a3c7d3"></stop>
    </linearGradient>
    <linearGradient id="c" x1="259.49" x2="78.19" y1="422.57" y2="241.27" gradientUnits="userSpaceOnUse">
      <stop offset="0" stop-color="#6f2efe"></stop>
      <stop offset=".35" stop-color="#6f2efe"></stop>
      <stop offset="1" stop-color="#ae90ff"></stop>
    </linearGradient>
    <linearGradient id="d" x1="264.29" x2="101.23" y1="280.37" y2="117.31" gradientUnits="userSpaceOnUse">
      <stop offset="0" stop-color="#bce4ed"></stop>
      <stop offset=".49" stop-color="#fff"></stop>
      <stop offset="1" stop-color="#fff"></stop>
    </linearGradient>
    <linearGradient id="b" x1="422.3" x2="236.15" y1="291.92" y2="105.76" gradientUnits="userSpaceOnUse">
      <stop offset="0" stop-color="#1eb4eb"></stop>
      <stop offset=".54" stop-color="#1eb4eb"></stop>
      <stop offset="1" stop-color="#92f4fe"></stop>
    </linearGradient>
    <linearGradient id="a" x1="189.27" x2="152.23" y1="230.24" y2="193.2" gradientUnits="userSpaceOnUse">
      <stop offset="0" stop-color="#ff9f7d"></stop>
      <stop offset=".55" stop-color="#ff9f7d"></stop>
      <stop offset="1" stop-color="#ffd4c7"></stop>
    </linearGradient>
    <linearGradient xlink:href="#a" id="g" x1="359.78" x2="322.74" y1="230.24" y2="193.2"></linearGradient>
    <linearGradient xlink:href="#a" id="h" x1="189.27" x2="152.23" y1="366.99" y2="329.95"></linearGradient>
    <linearGradient xlink:href="#a" id="i" x1="359.78" x2="322.74" y1="366.99" y2="329.95"></linearGradient>
    <linearGradient id="j" x1="369.42" x2="313.01" y1="295.86" y2="239.46" gradientUnits="userSpaceOnUse">
      <stop offset="0" stop-color="#fe7838"></stop>
      <stop offset=".43" stop-color="#fe7636"></stop>
      <stop offset=".97" stop-color="#ffad8a"></stop>
    </linearGradient>
    <linearGradient xlink:href="#b" id="k" x1="198.9" x2="142.5" y1="295.86" y2="239.46"></linearGradient>
    <linearGradient xlink:href="#c" id="l" x1="368.31" x2="313.01" y1="431.51" y2="376.21"></linearGradient>
    <linearGradient id="m" x1="199.46" x2="143.05" y1="432.05" y2="375.65" gradientUnits="userSpaceOnUse">
      <stop offset="0" stop-color="#a3c7d3"></stop>
      <stop offset=".5" stop-color="#a3c7d3"></stop>
      <stop offset="1" stop-color="#c1e1ea"></stop>
    </linearGradient>
    <linearGradient id="n" x1="348.44" x2="163.57" y1="239.85" y2="54.98" gradientUnits="userSpaceOnUse">
      <stop offset="0" stop-color="#34344f"></stop>
      <stop offset="1" stop-color="#666684"></stop>
    </linearGradient>
    <linearGradient xlink:href="#d" id="o" x1="179.24" x2="142.37" y1="142.71" y2="105.83"></linearGradient>
    <radialGradient id="e" cx="256" cy="-416.97" r="200.83" gradientTransform="matrix(1 0 0 .45 0 599.91)" gradientUnits="userSpaceOnUse">
      <stop offset="0" stop-color="#1eb4eb" stop-opacity=".6"></stop>
      <stop offset="1" stop-color="#1eb4eb" stop-opacity="0"></stop>
    </radialGradient>
  </defs>
  <g>
    <path fill="#dff8ff" d="M496.52,129.86C483.09,80.38,431.63,28.92,382.15,15.49,351.82,7.92,311.17.13,256,0c-55.16.14-95.81,7.92-126.14,15.49C80.38,28.93,28.92,80.38,15.49,129.86,7.92,160.19.14,200.84,0,256c.14,55.17,7.92,95.82,15.49,126.15,13.43,49.48,64.89,100.93,114.37,114.37,30.33,7.57,71,15.35,126.14,15.49,55.17-.14,95.82-7.92,126.15-15.49,49.48-13.44,100.94-64.89,114.37-114.37,7.57-30.33,15.35-71,15.49-126.15C511.87,200.84,504.09,160.19,496.52,129.86Z"></path>
    <path fill="url(#e)" d="M444.68,366.22c-10.54-17.59-50.9-35.87-89.72-40.64a862.45,862.45,0,0,0-99-5.51,862.3,862.3,0,0,0-99,5.51c-38.82,4.77-79.18,23.05-89.72,40.64C61.38,377,55.27,391.44,55.17,411c.1,19.6,6.21,34,12.15,44.83,10.54,17.58,50.9,35.86,89.72,40.64a865.2,865.2,0,0,0,99,5.5,865.2,865.2,0,0,0,99-5.5c38.82-4.78,79.18-23.06,89.72-40.64,5.94-10.78,12.05-25.23,12.15-44.83C456.73,391.44,450.62,377,444.68,366.22Z"></path>
    <path fill="url(#f)" d="M256,288.68v137.4h0c20.14,0,96.79-1.89,111.37-4.32l.13,0c26.27-4.64,49.58-27.95,54.22-54.22,0,0,0-.09,0-.13,1.65-9.92,3.05-48.64,3.78-78.71Z"></path>
    <path fill="url(#c)" d="M86.46,288.68c.71,30,2.1,68.57,3.79,78.71,0,0,0,.08,0,.13,4.64,26.27,28,49.58,54.22,54.22l.13,0c14.58,2.43,91.14,4.3,111.36,4.32V288.68Z"></path>
    <path fill="url(#d)" d="M256,288.68V85.93c-20.16,0-96.78,1.89-111.36,4.32l-.13,0c-26.27,4.64-49.58,28-54.22,54.22l0,.13C87.82,159.19,86,235.85,85.93,256c0,6.59.19,18.71.53,32.66Z"></path>
    <path fill="url(#b)" d="M425.54,288.68c.34-14.07.54-26.26.54-32.69,0-20.14-1.89-96.79-4.32-111.37,0,0,0-.08,0-.13-4.64-26.27-27.95-49.58-54.22-54.22l-.13,0C352.8,87.82,276.16,86,256,85.93h0V288.68Z"></path>
    <circle cx="170.75" cy="211.72" r="26.19" fill="url(#a)"></circle>
    <circle cx="341.26" cy="211.72" r="26.19" fill="url(#g)"></circle>
    <circle cx="170.75" cy="348.47" r="26.19" fill="url(#h)"></circle>
    <circle cx="341.26" cy="348.47" r="26.19" fill="url(#i)"></circle>
    <path fill="url(#j)" d="M298,274.93V275a18.91,18.91,0,0,0,4.63,10.4,19.49,19.49,0,0,0,3.68,3.24h69.79a19.26,19.26,0,0,0,3.65-3.23,19,19,0,0,0,4.64-10.4v-.11a77.63,77.63,0,0,0,.4-8.39,58.1,58.1,0,0,0-.4-6.93v-.11a16.15,16.15,0,0,0-4.66-9.71,16.34,16.34,0,0,0-9.78-4.71c-5.41-.58-18.86-.89-27.24-.89s-24.86.31-30.28.89a16.34,16.34,0,0,0-9.78,4.71,16.06,16.06,0,0,0-4.65,9.7v.11a40.79,40.79,0,0,0-.26,6.94A59.5,59.5,0,0,0,298,274.93Z"></path>
    <path fill="url(#k)" d="M127.49,274.93V275a18.92,18.92,0,0,0,4.64,10.4,19.43,19.43,0,0,0,3.67,3.24H205.6a19.63,19.63,0,0,0,3.66-3.23,19,19,0,0,0,4.63-10.4v-.11a79.34,79.34,0,0,0,.41-8.39,59.93,59.93,0,0,0-.41-6.93v-.11a16.08,16.08,0,0,0-4.65-9.71,16.37,16.37,0,0,0-9.78-4.71c-5.42-.58-18.87-.89-27.25-.89s-24.86.31-30.28.89a16.34,16.34,0,0,0-9.77,4.71,16.12,16.12,0,0,0-4.66,9.7v.11a40.79,40.79,0,0,0-.26,6.94A59.5,59.5,0,0,0,127.49,274.93Z"></path>
    <path fill="url(#l)" d="M298,411.68v.11a18.91,18.91,0,0,0,4.63,10.4,19.13,19.13,0,0,0,3.16,2.88c26.12-.78,53.46-2,61.58-3.31l.13,0a61.06,61.06,0,0,0,15.66-5.09,18,18,0,0,0,1.23-4.85s0-.07,0-.11a77.63,77.63,0,0,0,.4-8.39,58.1,58.1,0,0,0-.4-6.93v-.11a16.15,16.15,0,0,0-4.66-9.71,16.34,16.34,0,0,0-9.78-4.71c-5.41-.58-18.86-.89-27.24-.89s-24.86.32-30.28.89a16.34,16.34,0,0,0-9.78,4.71,16.06,16.06,0,0,0-4.65,9.7v.11a40.79,40.79,0,0,0-.26,6.94A59.5,59.5,0,0,0,298,411.68Z"></path>
    <path fill="url(#m)" d="M127.49,411.68v.11a18.1,18.1,0,0,0,1.21,4.8,61.27,61.27,0,0,0,15.78,5.15l.13,0c8.11,1.35,35.4,2.53,61.5,3.31a19.35,19.35,0,0,0,3.14-2.87,19,19,0,0,0,4.63-10.4v-.11a79.34,79.34,0,0,0,.41-8.39,59.93,59.93,0,0,0-.41-6.93v-.11a16.08,16.08,0,0,0-4.65-9.71,16.37,16.37,0,0,0-9.78-4.71c-5.42-.58-18.87-.89-27.25-.89s-24.86.32-30.28.89a16.34,16.34,0,0,0-9.77,4.71,16.12,16.12,0,0,0-4.66,9.7v.11a40.79,40.79,0,0,0-.26,6.94A59.5,59.5,0,0,0,127.49,411.68Z"></path>
    <path fill="url(#n)" d="M421.76,144.62s0-.08,0-.13c-4.64-26.27-27.95-49.58-54.22-54.22l-.13,0C352.8,87.82,276.16,86,256,85.93s-96.79,1.89-111.37,4.32l-.13,0c-26.27,4.64-49.58,28-54.22,54.22l0,.13c-.6,3.58-1.16,10.92-1.67,20.24,52.49-2.7,107.77-4,167.42-4.07h0c59.64,0,114.92,1.37,167.42,4.08C422.92,155.54,422.36,148.2,421.76,144.62Z"></path>
    <path fill="url(#o)" d="M181.25,110.84a12.37,12.37,0,1,1-12.37,12.37A12.37,12.37,0,0,1,181.25,110.84ZM140.37,113A12.38,12.38,0,1,1,128,125.33,12.37,12.37,0,0,1,140.37,113Z"></path>
  </g>
</svg>
