<svg xmlns="http://www.w3.org/2000/svg" viewBox="0 0 512 512" id="certificate">
  <defs>
    <linearGradient id="b" x1="382.4" x2="129.61" y1="382.4" y2="129.61" gradientUnits="userSpaceOnUse">
      <stop offset="0" stop-color="#bce4ed"></stop>
      <stop offset=".57" stop-color="#fff"></stop>
      <stop offset="1" stop-color="#fff"></stop>
    </linearGradient>
    <linearGradient id="c" x1="302.59" x2="209.02" y1="267.51" y2="173.94" gradientUnits="userSpaceOnUse">
      <stop offset="0" stop-color="#34344f"></stop>
      <stop offset=".26" stop-color="#3b3b57"></stop>
      <stop offset=".66" stop-color="#50506d"></stop>
      <stop offset="1" stop-color="#666684"></stop>
    </linearGradient>
    <linearGradient id="d" x1="355.32" x2="156.69" y1="355.32" y2="156.69" gradientUnits="userSpaceOnUse">
      <stop offset="0" stop-color="#0e95e0"></stop>
      <stop offset="1" stop-color="#2fbdee"></stop>
    </linearGradient>
    <linearGradient id="e" x1="382.4" x2="129.61" y1="382.4" y2="129.61" gradientUnits="userSpaceOnUse">
      <stop offset="0" stop-color="#1eb4eb"></stop>
      <stop offset=".54" stop-color="#1eb4eb"></stop>
      <stop offset="1" stop-color="#92f4fe"></stop>
    </linearGradient>
    <linearGradient id="f" x1="273.36" x2="238.24" y1="327.55" y2="292.42" gradientUnits="userSpaceOnUse">
      <stop offset="0" stop-color="#fe7838"></stop>
      <stop offset=".43" stop-color="#fe7636"></stop>
      <stop offset=".97" stop-color="#ffad8a"></stop>
    </linearGradient>
    <radialGradient id="a" cx="256" cy="-1927.56" r="200.83" gradientTransform="matrix(1 0 0 .45 0 1284.14)" gradientUnits="userSpaceOnUse">
      <stop offset="0" stop-color="#1eb4eb" stop-opacity=".6"></stop>
      <stop offset="1" stop-color="#1eb4eb" stop-opacity="0"></stop>
    </radialGradient>
  </defs>
  <g>
    <path fill="#dff8ff" d="M496.52,129.86C483.09,80.38,431.63,28.92,382.15,15.49,351.82,7.92,311.17.13,256,0c-55.16.14-95.81,7.92-126.14,15.49C80.38,28.93,28.92,80.38,15.49,129.86,7.92,160.19.14,200.84,0,256c.14,55.17,7.92,95.82,15.49,126.15,13.43,49.48,64.89,100.93,114.37,114.37,30.33,7.57,71,15.35,126.14,15.49,55.17-.14,95.82-7.92,126.15-15.49,49.48-13.44,100.94-64.89,114.37-114.37,7.57-30.33,15.35-71,15.49-126.15C511.87,200.84,504.09,160.19,496.52,129.86Z"></path>
    <path fill="url(#a)" d="M444.68,366.22c-10.54-17.59-50.9-35.87-89.72-40.64a862.45,862.45,0,0,0-99-5.51,862.3,862.3,0,0,0-99,5.51c-38.82,4.77-79.18,23.05-89.72,40.64C61.38,377,55.27,391.44,55.17,411c.1,19.6,6.21,34,12.15,44.83,10.54,17.58,50.9,35.86,89.72,40.64a865.2,865.2,0,0,0,99,5.5,865.2,865.2,0,0,0,99-5.5c38.82-4.78,79.18-23.06,89.72-40.64,5.94-10.78,12.05-25.23,12.15-44.83C456.73,391.44,450.62,377,444.68,366.22Z"></path>
    <path fill="url(#b)" d="M418.81,182c-6.4-28.88-34.4-55.35-63.37-61-17.65-3.52-66.87-7.88-99.44-7.52-32.56-.36-81.78,4-99.43,7.52-29,5.62-57,32.09-63.37,61-3.64,17.54-7.22,41.4-7.27,74s3.63,56.44,7.27,74c6.4,28.88,34.4,55.35,63.37,61,17.65,3.53,66.87,7.89,99.43,7.53,32.57.36,81.79-4,99.44-7.53,29-5.61,57-32.08,63.37-61,3.64-17.54,7.22-41.4,7.27-74S422.45,199.57,418.81,182Z"></path>
    <path fill="url(#c)" d="M294.29,270.58h-77a12.63,12.63,0,0,1,0-25.25h77a12.63,12.63,0,0,1,0,25.25Zm28-46.42h-133a12.63,12.63,0,1,1,0-25.25h133a12.63,12.63,0,0,1,0,25.25Z"></path>
    <path fill="url(#d)" d="M395,310.85A370.17,370.17,0,0,0,398.92,256,369.76,369.76,0,0,0,395,201.16a12.66,12.66,0,0,0-11.24-10.68A32.1,32.1,0,0,1,355,160.74,12.7,12.7,0,0,0,344,149c-21.55-2.71-57.21-5.46-83.66-5.46-1.29,0-2.55,0-3.79,0h-1c-26.74-.3-64.86,2.59-87.46,5.44a12.71,12.71,0,0,0-11,11.71,32.1,32.1,0,0,1-28.78,29.73A12.65,12.65,0,0,0,117,201.15,366.13,366.13,0,0,0,113.09,256,366.63,366.63,0,0,0,117,310.86a12.66,12.66,0,0,0,11.24,10.67A32.1,32.1,0,0,1,157,351.26a12.71,12.71,0,0,0,11,11.71c22.6,2.85,60.72,5.74,87.46,5.44h1c1.24,0,2.5,0,3.79,0,26.45,0,62.11-2.75,83.66-5.46a12.7,12.7,0,0,0,11-11.7,32.1,32.1,0,0,1,28.8-29.74A12.67,12.67,0,0,0,395,310.85ZM255.4,359.11c-26,.29-63.83-2.55-86.18-5.37a3.42,3.42,0,0,1-2.91-3.13,41.39,41.39,0,0,0-37.11-38.33,3.36,3.36,0,0,1-3-2.81A357.4,357.4,0,0,1,122.39,256a357.2,357.2,0,0,1,3.82-53.46,3.36,3.36,0,0,1,3-2.81,41.39,41.39,0,0,0,37.11-38.33,3.42,3.42,0,0,1,2.91-3.13c21.31-2.69,56.65-5.39,82.46-5.39,1.26,0,2.51,0,3.73,0h1.19c1.21,0,2.43,0,3.69,0,26.07,0,61.23,2.71,82.5,5.39a3.44,3.44,0,0,1,2.91,3.13,41.36,41.36,0,0,0,37.12,38.33,3.37,3.37,0,0,1,3,2.82h0a360.64,360.64,0,0,1,3.8,53.42,361,361,0,0,1-3.8,53.49,3.35,3.35,0,0,1-3,2.81,41.38,41.38,0,0,0-37.12,38.34,3.44,3.44,0,0,1-2.91,3.13c-21.27,2.68-56.43,5.39-82.5,5.39Z"></path>
    <path fill="url(#e)" d="M418.81,182c-6.4-28.88-34.4-55.35-63.37-61-17.65-3.52-66.87-7.88-99.44-7.52-32.56-.36-81.78,4-99.43,7.52-29,5.62-57,32.09-63.37,61-3.64,17.54-7.22,41.4-7.27,74s3.63,56.44,7.27,74c6.4,28.88,34.4,55.35,63.37,61,17.65,3.53,66.87,7.89,99.43,7.53,32.57.36,81.79-4,99.44-7.53,29-5.61,57-32.08,63.37-61,3.64-17.54,7.22-41.4,7.27-74S422.45,199.57,418.81,182ZM395,310.85a12.67,12.67,0,0,1-11.24,10.68A32.1,32.1,0,0,0,355,351.27,12.7,12.7,0,0,1,344,363c-21.55,2.71-57.21,5.46-83.66,5.46-1.29,0-2.55,0-3.79,0h-1c-26.74.3-64.86-2.59-87.46-5.44a12.71,12.71,0,0,1-11-11.71,32.1,32.1,0,0,0-28.78-29.73A12.66,12.66,0,0,1,117,310.86,366.63,366.63,0,0,1,113.09,256,366.13,366.13,0,0,1,117,201.15a12.65,12.65,0,0,1,11.24-10.67A32.1,32.1,0,0,0,157,160.75a12.71,12.71,0,0,1,11-11.71c22.6-2.85,60.72-5.74,87.46-5.44h1c1.24,0,2.5,0,3.79,0,26.45,0,62.11,2.75,83.66,5.46a12.7,12.7,0,0,1,11,11.7,32.1,32.1,0,0,0,28.8,29.74A12.66,12.66,0,0,1,395,201.16,369.76,369.76,0,0,1,398.92,256,370.17,370.17,0,0,1,395,310.85Z"></path>
    <path fill="url(#f)" d="M279,315l-3.16,3.08c0,1.43-.06,2.86-.11,4.29a7.92,7.92,0,0,1-7.47,7.46l-4.3.11-3.08,3.15a6.89,6.89,0,0,1-10.08,0L247.68,330c-1.43,0-2.86-.06-4.3-.11a7.91,7.91,0,0,1-7.47-7.46c0-1.43-.08-2.86-.11-4.29L232.64,315a6.87,6.87,0,0,1,0-10.06l3.16-3.07c0-1.43.07-2.86.11-4.29a7.91,7.91,0,0,1,7.47-7.46c1.44-.05,2.87-.08,4.3-.11l3.08-3.16a6.89,6.89,0,0,1,10.08,0l3.08,3.15,4.3.11a7.91,7.91,0,0,1,7.47,7.46c0,1.43.08,2.86.11,4.29L279,305A6.84,6.84,0,0,1,279,315Z"></path>
  </g>
</svg>
