<svg width="150" height="150" viewBox="0 0 150 150" fill="none" xmlns="http://www.w3.org/2000/svg">
<g clip-path="url(#clip0_108_135)">
<rect width="150" height="150" fill="#13A1A1"/>
<path d="M74.1141 165.916C118.737 165.916 154.911 159.919 154.911 152.522C154.911 145.124 118.737 139.128 74.1141 139.128C29.4912 139.128 -6.68283 145.124 -6.68283 152.522C-6.68283 159.919 29.4912 165.916 74.1141 165.916Z" fill="#E5E5FF"/>
<path d="M78.9652 -16.3331H75.7752V20.0587H78.9652V-16.3331Z" fill="#1B136A"/>
<path d="M37.1114 1.47891C35.5955 -0.223649 35.5949 -0.0863074 26.5966 -8.78144C26.2942 -9.07364 25.8335 -8.61456 26.1347 -8.31943C34.9998 0.369924 34.9567 0.463199 36.677 1.91343C36.9778 2.16712 37.3772 1.77738 37.1114 1.47891ZM31.6833 10.0597C30.5743 9.51721 30.5123 9.57122 23.6566 7.14493C23.1926 6.98068 22.9929 7.71792 23.4536 7.88095C30.2241 10.2774 30.2343 10.3629 31.4391 10.6391C31.7728 10.7155 32.0205 10.2247 31.6833 10.0597ZM23.0853 23.701C19.4992 22.8656 15.8458 22.2974 12.2239 21.6377C11.7438 21.5502 11.5378 22.2856 12.0211 22.3737C15.6745 23.0391 19.3241 23.7973 23.0061 24.2855C23.3396 24.3297 23.4077 23.7761 23.0853 23.701ZM129.817 3.54689C128.28 7.47595 127.04 11.5374 125.684 15.5324C125.537 15.9672 126.223 16.1529 126.37 15.7216C127.736 11.7319 129.235 7.76047 130.416 3.71194C130.53 3.32018 129.96 3.18302 129.817 3.54689ZM139.217 15.0639C137.17 18.3168 135.275 21.673 133.319 24.9815C133.113 25.3298 133.655 25.646 133.86 25.2982C135.815 21.9887 137.841 18.7102 139.703 15.3479C139.879 15.0299 139.41 14.7574 139.217 15.0639ZM153.57 35.1979C150.268 35.9772 147.04 37.0804 143.786 38.032C143.251 38.1884 143.481 39.0326 144.016 38.8679C147.258 37.8683 150.561 37.0091 153.747 35.8404C154.145 35.6944 153.993 35.098 153.57 35.1979ZM5.35204 123.766C4.40734 124.305 3.56243 124.922 1.82354 126.134C1.65757 126.25 1.58076 126.463 1.68891 126.648C1.78472 126.812 2.03539 126.899 2.20236 126.782C3.91322 125.583 4.84352 124.958 5.70883 124.228C5.9692 124.008 5.63545 123.604 5.35204 123.766ZM10.6208 130.213C10.2037 130.78 10.1062 130.962 8.11359 134.151C7.8791 134.527 8.47199 134.871 8.70568 134.497C10.6411 131.4 10.8021 131.175 11.1458 130.52C11.3312 130.166 10.8491 129.902 10.6208 130.213ZM151.485 135.217C151.018 134.621 151.464 135.123 143.874 127.49C143.545 127.159 143.033 127.671 143.362 128.002C151.018 135.681 150.499 135.208 151.055 135.647C151.364 135.892 151.727 135.527 151.485 135.217ZM157.539 129.517C155.703 128.139 154.934 127.671 146.023 121.802C145.607 121.528 145.224 122.193 145.634 122.467C154.48 128.385 155.255 128.942 157.209 130.081C157.582 130.298 157.867 129.763 157.539 129.517Z" fill="#1B136A"/>
<path d="M109.299 10.5603H45.4415V29.5573H109.299V10.5603Z" fill="#FF6A00"/>
<path d="M117.882 14.5657H36.8586L44.2868 3.45559C45.8665 1.09296 48.521 -0.325439 51.3631 -0.325439H102.479C105.882 -0.325439 109.061 1.37318 110.953 4.20257L117.882 14.5657Z" fill="#FFAA00"/>
<path d="M135.308 153.495H19.4325L25.5913 129.801H129.149L135.308 153.495Z" fill="#0AB7B7"/>
<path d="M148.336 108.147H6.40485C10.671 77.7462 21.2988 47.8689 39.2559 21.7494C40.3759 20.1203 42.2205 19.1432 44.1974 19.1432H109.852C112.271 19.1432 114.543 20.3068 115.946 22.2773C134.15 47.8407 144.586 77.6142 148.336 108.147Z" fill="#FFC750"/>
<path d="M128.717 139.128H26.6531C23.5348 139.128 20.6546 137.177 19.1023 134.015L6.40485 108.147H148.336L135.325 134.654C133.966 137.421 131.446 139.128 128.717 139.128Z" fill="#FF6B35"/>
<path d="M77.3702 97.5346C95.004 97.5346 109.299 83.2396 109.299 65.6058C109.299 47.9721 95.004 33.6771 77.3702 33.6771C59.7365 33.6771 45.4415 47.9721 45.4415 65.6058C45.4415 83.2396 59.7365 97.5346 77.3702 97.5346Z" fill="#4A53E2"/>
<path d="M77.3703 91.1434C91.4743 91.1434 102.908 79.7099 102.908 65.6058C102.908 51.5018 91.4743 40.0682 77.3703 40.0682C63.2662 40.0682 51.8327 51.5018 51.8327 65.6058C51.8327 79.7099 63.2662 91.1434 77.3703 91.1434Z" fill="#1B136A"/>
<path d="M77.3702 91.1433C89.9841 91.1433 100.21 80.9177 100.21 68.3038C100.21 55.6899 89.9841 45.4644 77.3702 45.4644C64.7564 45.4644 54.5308 55.6899 54.5308 68.3038C54.5308 80.9177 64.7564 91.1433 77.3702 91.1433Z" fill="white"/>
<path d="M27.4699 89.5783H11.8536C11.2819 89.5783 10.8186 89.115 10.8186 88.5433C10.8186 87.9716 11.2819 87.5083 11.8536 87.5083H27.4699C28.9383 87.5083 30.2078 86.5121 30.5563 85.0854L39.7124 47.6192C40.202 45.6176 38.6866 43.6878 36.626 43.6878H28.5906C28.019 43.6878 27.5556 43.2245 27.5556 42.6528C27.5556 42.0811 28.019 41.6178 28.5906 41.6178H36.626C40.0289 41.6178 42.5311 44.8052 41.7234 48.1108L32.5673 85.577C31.9912 87.9328 29.8953 89.5783 27.4699 89.5783ZM143.312 89.5783H127.696C125.27 89.5783 123.174 87.9328 122.598 85.577L113.442 48.1108C112.634 44.8053 115.137 41.6178 118.539 41.6178H126.575C127.146 41.6178 127.61 42.0811 127.61 42.6528C127.61 43.2245 127.146 43.6878 126.575 43.6878H118.539C116.477 43.6878 114.964 45.6199 115.453 47.6192L124.609 85.0854C124.958 86.5121 126.227 87.5083 127.696 87.5083H143.312C143.884 87.5083 144.347 87.9716 144.347 88.5433C144.347 89.115 143.884 89.5783 143.312 89.5783ZM148.336 109.182H6.40484C5.83317 109.182 5.36984 108.719 5.36984 108.147C5.36984 107.576 5.83317 107.112 6.40484 107.112H148.336C148.907 107.112 149.371 107.576 149.371 108.147C149.371 108.719 148.907 109.182 148.336 109.182Z" fill="#4A53E2"/>
<path d="M114.325 140.163C113.753 140.163 113.29 139.699 113.29 139.128V108.147C113.29 107.576 113.753 107.112 114.325 107.112C114.897 107.112 115.36 107.576 115.36 108.147V139.128C115.36 139.699 114.897 140.163 114.325 140.163ZM39.0656 140.163C38.4939 140.163 38.0306 139.699 38.0306 139.128V108.147C38.0306 107.576 38.4939 107.112 39.0656 107.112C39.6373 107.112 40.1006 107.576 40.1006 108.147V139.128C40.1006 139.699 39.6373 140.163 39.0656 140.163Z" fill="#4A53E2"/>
<path d="M32.4869 140.205C32.2942 140.95 32.3115 141.181 31.903 145.168C31.73 146.855 31.5326 148.547 31.4342 150.24C31.4142 150.585 31.9937 150.673 32.0457 150.323C32.2867 148.698 32.3794 147.623 32.8685 142.914C32.9584 142.046 33.1099 141.157 33.0688 140.284C33.0534 139.959 32.5735 139.87 32.4869 140.205ZM45.6045 144.834C45.6118 143.533 45.7296 142.175 45.5521 140.884C45.5126 140.597 45.017 140.599 44.9749 140.884C44.7849 142.173 44.8907 143.533 44.8855 144.834C44.8805 146.166 44.8075 147.537 44.9684 148.86C45.0086 149.191 45.4399 149.189 45.4831 148.86C45.6563 147.538 45.5968 146.167 45.6045 144.834ZM55.1726 145.53C55.1199 144.341 55.1709 143.088 54.9443 141.918C54.8775 141.574 54.4041 141.693 54.3742 141.995C54.2902 142.843 54.6383 148.356 54.7011 149.205C54.7288 149.581 55.3008 149.591 55.2936 149.205C55.271 147.98 55.2269 146.754 55.1726 145.53ZM68.2107 145.706C68.195 144.673 68.1916 143.624 68.0416 142.601C67.9904 142.251 67.4846 142.37 67.4598 142.68C67.378 143.701 67.4525 144.745 67.5043 145.767C67.5565 146.795 67.5755 147.831 67.7083 148.853C67.7493 149.167 68.19 149.185 68.2111 148.853C68.2781 147.807 68.2264 146.754 68.2107 145.706ZM81.3762 141.238C81.3395 140.986 80.905 140.986 80.8682 141.238C80.6785 142.538 80.7434 143.866 80.7457 145.178C80.7521 148.989 80.7836 148.174 80.9007 149.204C80.9331 149.488 81.3113 149.489 81.3436 149.204C81.4622 148.162 81.4924 148.938 81.4987 145.178C81.5009 143.866 81.5658 142.539 81.3762 141.238ZM91.3094 146.007C90.5706 141.793 90.5926 141.539 90.2781 140.827C90.158 140.555 89.7817 140.722 89.7651 140.966C89.7084 141.792 89.9588 142.686 90.1023 143.497C90.6731 146.728 91.0915 149.207 91.5823 151.323C91.6515 151.622 92.1674 151.565 92.1288 151.249C91.9156 149.493 91.6149 147.749 91.3094 146.007ZM104.827 145.849C104.751 144.44 104.787 142.952 104.473 141.572C104.398 141.24 103.952 141.351 103.921 141.646C103.774 143.052 103.99 144.527 104.079 145.933C104.171 147.364 104.291 148.791 104.413 150.22C104.445 150.594 105.019 150.606 105.006 150.22C104.958 148.762 104.907 147.305 104.827 145.849ZM118.724 150.78C118.401 149.105 117.936 147.455 117.512 145.804C117.088 144.155 116.715 142.475 116.146 140.869C116.015 140.502 115.505 140.65 115.568 141.028C115.85 142.709 116.339 144.36 116.769 146.008C117.199 147.658 117.593 149.325 118.124 150.946C118.249 151.329 118.799 151.172 118.724 150.78ZM125.999 148.652C124.991 144.573 124.731 143.576 124.369 142.59C124.24 142.24 123.755 142.379 123.815 142.743C123.967 143.672 124.144 144.404 125.353 148.748C125.53 149.384 125.657 150.092 125.956 150.682C126.064 150.895 126.418 150.795 126.408 150.559C126.38 149.922 126.152 149.269 125.999 148.652ZM37.4322 28.6941C27.6184 45.9504 19.832 64.4543 14.3492 83.7055C13.1966 87.7525 11.0675 95.9003 10.3675 100.05C10.3103 100.388 10.8031 100.54 10.8927 100.195C12.9804 92.1171 18.4612 63.4727 38.0421 29.0506C38.2671 28.655 37.6572 28.2986 37.4322 28.6941ZM42.5647 21.5822C42.115 22.0977 41.1159 23.776 40.7649 24.3633C40.6801 24.5047 40.7331 24.6982 40.8743 24.7808C41.0247 24.8688 41.1994 24.8082 41.2919 24.6713C41.6539 24.1367 42.758 22.5126 43.0159 21.9303C43.1714 21.5802 42.7509 21.3687 42.5647 21.5822ZM77.1901 89.7615C75.4221 89.3175 73.6236 89.2236 70.6091 87.8303C61.6679 83.6977 56.317 74.1395 58.3888 63.4872C58.4585 63.1283 57.9238 62.9716 57.8348 63.3344C55.5619 72.5931 59.8476 83.24 69.4031 88.1298C71.4643 89.1846 74.8254 90.4114 77.1067 90.3787C77.4549 90.3738 77.541 89.8496 77.1901 89.7615ZM141.101 79.7375C136.388 63.8279 127.866 44.4244 117.412 28.1068C117.22 27.8065 116.744 28.0803 116.932 28.3878C124.795 41.2497 131.175 54.0279 136.423 68.1599C137.866 72.0458 139.159 75.9772 140.42 79.9252C140.557 80.3559 141.231 80.176 141.101 79.7375ZM108.622 4.22172C103.79 0.0880442 97.228 0.432621 90.9241 0.523024C74.9702 0.751539 71.5194 0.804589 67.8881 0.966589C67.5737 0.980617 67.5707 1.45205 67.8881 1.45738C74.8012 1.57362 81.7265 1.38443 88.6396 1.29129C95.3015 1.20167 102.005 0.640125 106.866 3.83707C109.272 5.41979 111.227 7.90825 111.471 10.8548C111.511 11.3388 112.272 11.3428 112.231 10.8548C112.012 8.23135 110.599 5.91339 108.622 4.22172ZM57.6333 0.476078C57.1222 0.469347 53.4928 1.01297 53.081 1.07572C52.7643 1.12398 52.8352 1.67584 53.1575 1.64011C53.5584 1.59555 57.2042 1.18301 57.7096 1.04037C58.0222 0.952184 57.9591 0.48038 57.6333 0.476078ZM76.5609 -13.0824C75.0273 -13.3947 73.6244 -14.0361 72.7883 -15.4288C72.3645 -16.1353 72.1501 -16.9565 72.1466 -17.7788C72.1426 -18.6597 72.4195 -19.4479 72.735 -20.2572C72.8261 -20.4906 72.4614 -20.7071 72.3048 -20.5075C71.1455 -19.0291 71.2651 -16.6998 72.1662 -15.1293C73.0077 -13.663 74.7415 -12.4295 76.4853 -12.5239C76.7889 -12.5404 76.8912 -13.0151 76.5609 -13.0824ZM139.539 111.892C139.254 112.252 139.206 112.429 138.28 114.537C132.038 128.733 131.418 130.069 129.99 133.544C129.88 133.812 130.336 134.006 130.46 133.743C132.081 130.303 132.616 129.011 139.479 113.476C139.667 113.052 139.91 112.611 139.984 112.151C140.021 111.924 139.725 111.658 139.539 111.892ZM110.077 64.2648C107.95 47.887 95.3509 35.6196 80.205 33.4791C79.9263 33.4397 79.7968 33.8572 80.0854 33.912C93.0568 36.3718 103.841 45.3592 107.885 58.2812C109.379 63.0554 109.369 65.9234 109.56 69.3818C109.586 69.863 110.261 69.855 110.302 69.3818C110.449 67.6823 110.296 65.9527 110.077 64.2648ZM106.648 77.833C106.008 78.8095 105.555 79.9085 105.049 80.9584C104.553 81.9899 103.969 83.0318 103.658 84.1324C103.581 84.4042 103.94 84.5232 104.09 84.3146C104.765 83.375 105.22 82.2527 105.724 81.2104C106.227 80.1718 106.793 79.1449 107.156 78.0475C107.259 77.7366 106.814 77.5787 106.648 77.833Z" fill="#1B136A"/>
<path d="M91.5103 47.3046C90.6652 46.4192 88.3154 45.3719 87.1783 44.919C82.6737 43.1248 77.4456 42.6262 72.4494 43.6863C62.9008 45.7121 55.1705 53.7269 53.4551 63.5618C53.3943 63.9103 53.9223 64.0636 53.9917 63.7098C55.145 57.8373 58.5317 52.5227 63.2707 48.8804C69.5572 44.0486 78.2812 42.5937 86.2983 45.5224C89.1632 46.5688 89.9195 47.3842 91.1959 47.8448C91.5139 47.9594 91.7196 47.5237 91.5103 47.3046ZM98.1852 55.4868C97.2295 52.9006 97.2373 52.8527 97.0985 52.7276C97.0863 52.6989 97.0743 52.6701 97.0622 52.6414C96.9978 52.488 96.8583 52.3779 96.6831 52.4261C96.5258 52.4693 96.4188 52.6455 96.4678 52.8052C96.4811 52.8484 96.4943 52.8915 96.5076 52.9347C96.4845 53.0878 96.5307 53.1824 96.7519 53.8043C97.7779 56.6893 97.7151 56.5577 97.8141 56.6885C97.9153 56.8221 98.0608 56.9064 98.2332 56.859C98.7736 56.7104 98.3621 55.9656 98.1852 55.4868Z" fill="#E5E5FF"/>
</g>
<defs>
<clipPath id="clip0_108_135">
<rect width="150" height="150" fill="white"/>
</clipPath>
</defs>
</svg>
