<svg width="150" height="150" viewBox="0 0 150 150" fill="none" xmlns="http://www.w3.org/2000/svg">
<g clip-path="url(#clip0_108_151)">
<rect width="150" height="150" fill="#EC9CF0"/>
<path d="M61.1773 119.349H26.8601V15.2372C26.8601 7.24708 29.4466 -0.528344 34.2329 -6.92629C36.448 -9.88726 38.6631 -12.8482 40.8782 -15.8092C42.4147 -17.8632 45.4921 -17.8691 47.0367 -15.8211C49.5107 -12.5405 51.9848 -9.25987 54.4589 -5.97925C58.8189 -0.198021 61.1773 6.84594 61.1773 14.0869V119.349Z" fill="#FFC750"/>
<path d="M61.1773 28.5898H26.8601V32.1764H61.1773V28.5898Z" fill="#1B136A"/>
<path d="M61.1773 47.5392H26.8601V51.1258H61.1773V47.5392Z" fill="#1B136A"/>
<path d="M61.1773 66.4884H26.8601V70.075H61.1773V66.4884Z" fill="#1B136A"/>
<path d="M120.817 119.349H155.134V15.2372C155.134 7.24708 152.548 -0.528344 147.762 -6.92629C145.547 -9.88726 143.331 -12.8482 141.116 -15.8092C139.58 -17.8632 136.502 -17.8691 134.958 -15.8211C132.484 -12.5405 130.01 -9.25987 127.536 -5.97925C123.176 -0.198021 120.817 6.84594 120.817 14.0869V119.349Z" fill="#FFC750"/>
<path d="M120.817 32.1764L155.135 32.1764V28.5898L120.817 28.5898V32.1764Z" fill="#1B136A"/>
<path d="M120.817 51.1257L155.135 51.1257V47.5392L120.817 47.5392V51.1257Z" fill="#1B136A"/>
<path d="M120.817 70.075H155.135V66.4884H120.817V70.075Z" fill="#1B136A"/>
<path d="M41.5514 167.654C49.5103 167.654 55.9623 161.202 55.9623 153.243C55.9623 145.284 49.5103 138.832 41.5514 138.832C33.5926 138.832 27.1406 145.284 27.1406 153.243C27.1406 161.202 33.5926 167.654 41.5514 167.654Z" fill="white"/>
<path d="M140.505 167.654C148.464 167.654 154.916 161.202 154.916 153.243C154.916 145.284 148.464 138.832 140.505 138.832C132.546 138.832 126.094 145.284 126.094 153.243C126.094 161.202 132.546 167.654 140.505 167.654Z" fill="white"/>
<path d="M54.4742 141.615H29.9654L34.2514 129.715H50.1882L54.4742 141.615Z" fill="#0B4242"/>
<path d="M152.767 141.615H128.258L132.544 129.715H148.481L152.767 141.615Z" fill="#0B4242"/>
<path d="M55.1122 136.492H28.8204L31.7925 117.304H52.14L55.1122 136.492Z" fill="#0B4242"/>
<path d="M153.405 136.492H127.113L130.085 117.304H150.433L153.405 136.492Z" fill="#0B4242"/>
<path d="M66.5739 48.1425C56.934 61.2212 44.7081 72.0161 30.4259 79.762C20.7232 85.0242 14.683 95.1738 14.683 106.212V122.865H66.5739V48.1425ZM114.314 48.1425C123.953 61.2212 136.179 72.0161 150.462 79.762C160.164 85.0242 166.204 95.1738 166.204 106.212V122.865H114.314V48.1425Z" fill="#0AB7B7"/>
<path d="M121.163 109.807H60.8313V4.06079C60.8313 -15.6965 68.7004 -34.4124 82.2724 -46.9347C83.6045 -48.1639 84.9367 -49.393 86.2688 -50.6221C89.2005 -53.327 93.7287 -53.2907 96.6166 -50.5392C99.0723 -48.1994 101.528 -45.8596 103.984 -43.5198C114.879 -33.139 121.163 -17.8831 121.163 -1.81224V109.807Z" fill="#FF6B35"/>
<path d="M121.163 109.807H60.8313V34.1823C60.8313 20.0528 68.7004 6.66811 82.2724 -2.28726C83.6045 -3.16628 84.9367 -4.0453 86.2688 -4.92431C89.2005 -6.85872 93.7287 -6.83278 96.6166 -4.86503C99.0723 -3.19172 101.528 -1.51841 103.984 0.154909C114.879 7.57881 121.163 18.4891 121.163 29.9822V109.807Z" fill="#E5E5FF"/>
<path d="M86.4471 141.615H61.9383L66.2243 129.715H82.1612L86.4471 141.615Z" fill="#B4B2FA"/>
<path d="M119.511 141.615H95.002L99.288 129.715H115.225L119.511 141.615Z" fill="#B4B2FA"/>
<path d="M88.6449 134.189H60.8313V106.127C60.8313 101.195 65.3333 97.1968 70.8867 97.1968H74.1579C80.2934 97.1968 85.4112 101.362 85.946 106.79L88.6449 134.189ZM93.3496 134.189H121.163V106.701C121.163 101.452 116.372 97.1968 110.462 97.1968H107.167C101.41 97.1968 96.6086 101.105 96.1069 106.198L93.3496 134.189Z" fill="#E5E5FF"/>
<path d="M90.9668 144.383C90.0161 144.383 89.221 143.661 89.1298 142.714L85.3624 103.628C85.0945 100.848 87.2798 98.4421 90.0725 98.4421H91.8253C94.6204 98.4421 96.8076 100.85 96.5394 103.632L92.7695 142.746C92.6799 143.674 91.8997 144.383 90.9668 144.383Z" fill="#0AB7B7"/>
<path d="M103.984 0.154846C101.528 -1.51839 99.0723 -3.19175 96.6166 -4.86499C93.7286 -6.8328 89.2004 -6.8587 86.2688 -4.92436C84.9367 -4.04527 83.6045 -3.16631 82.2724 -2.28723C74.0904 3.11154 67.9853 10.1215 64.4233 17.9326C81.9555 13.7318 100.616 13.6514 118.944 18.3064C116.223 11.3113 111.084 4.99262 103.984 0.154846Z" fill="#4A53E2"/>
<path d="M36.9763 116.616C33.5885 120.562 31.8772 126.437 32.5783 131.576C32.6368 132.005 33.3403 131.899 33.3285 131.475C33.1638 125.584 34.4826 121.688 37.7014 117.175C38.0038 116.751 37.3174 116.218 36.9763 116.616ZM149.673 130.155C147.666 122.015 147.44 120.795 146.698 118.35C146.536 117.817 145.769 118.041 145.872 118.577C146.376 121.213 147.101 123.827 147.744 126.432C149.345 132.928 149.27 133.029 149.735 134.089C149.897 134.459 150.521 134.272 150.494 133.883C150.406 132.629 149.973 131.372 149.673 130.155ZM42.8261 73.5867C30.1374 78.2407 20.3979 89.6269 17.2983 102.705C16.3953 106.515 15.8541 110.695 16.3729 114.6C16.4267 115.005 17.0145 115.035 17.0276 114.6C17.08 112.856 17.0632 111.116 17.2167 109.375C18.5229 94.5522 27.2555 81.0642 43.1206 74.6551C43.7673 74.3938 43.5048 73.3376 42.8261 73.5867ZM55.4804 63.5387C55.0341 63.7708 55.1536 63.6815 54.7771 64.059C51.4368 67.4042 51.0797 67.7339 50.517 68.4879C50.2808 68.8045 50.7516 69.2764 51.0683 69.0391C51.8144 68.4803 52.2076 68.0587 54.8457 65.416C55.9825 64.2769 55.7459 64.5743 56.0086 64.067C56.1881 63.7204 55.8279 63.358 55.4804 63.5387ZM153.064 83.3346C152.199 82.5398 151.102 81.9316 150.133 81.2682C141.108 75.085 139.122 73.6865 128.473 66.6011C128.128 66.3715 127.82 66.918 128.151 67.152C140.117 75.6104 149.484 81.9758 149.432 81.9399C150.437 82.6299 151.443 83.4798 152.535 84.0202C152.957 84.2288 153.45 83.6886 153.064 83.3346ZM162.71 106.18C162.438 103.298 162.213 100.854 161.91 98.0799C161.851 97.5377 161.004 97.5177 161.045 98.0799C161.286 101.36 161.839 107.477 161.834 107.426C161.873 107.872 161.865 108.369 162.036 108.785C162.178 109.131 162.757 109.24 162.854 108.785C163.027 107.969 162.788 107.005 162.71 106.18ZM67.2417 168.347C64.9952 166.67 59.8065 166.755 56.4778 169.813C54.3298 166.565 50.321 164.349 46.408 164.575C45.7116 164.615 45.7001 165.657 46.408 165.666C50.3205 165.719 53.851 167.557 55.9129 170.933C56.0832 171.212 56.5198 171.307 56.7543 171.042C58.6476 168.901 61.4814 167.949 64.1927 168.272C65.168 168.388 66.0198 168.765 66.9507 169.038C67.3901 169.167 67.5651 168.589 67.2417 168.347ZM22.3767 166.388C20.8072 164.914 16.7131 164.282 13.5111 165.889C10.9397 167.179 8.91074 169.89 8.68991 172.79C8.66259 173.148 9.23737 173.223 9.31642 172.874C10.3917 168.126 13.9133 165.596 17.9612 165.802C20.0859 165.91 21.028 166.661 22.0173 167.005C22.3684 167.127 22.6381 166.633 22.3767 166.388ZM137.84 154.599C135.194 152.128 131.562 151.8 128.641 153.255C128.079 153.535 127.387 153.861 127.229 154.521C127.188 154.691 127.309 154.86 127.488 154.861C128.04 154.864 128.441 154.513 128.911 154.27C132.21 152.566 136.159 153.56 138.197 156.664C138.524 157.162 138.708 157.724 139.013 158.227C139.324 158.74 140.024 158.383 139.934 157.839C139.734 156.643 138.7 155.401 137.84 154.599ZM166.148 168.954C161.969 166.009 155.923 167.425 153.435 172.326C151.985 170.694 149.986 169.627 147.783 169.402C145.226 169.142 142.446 170.15 140.737 172.092C140.261 172.632 141.004 173.392 141.532 172.887C145.306 169.279 150.481 170.047 153.077 173.716C153.375 174.137 153.957 174.059 154.136 173.577C155.803 169.081 161.042 167.024 165.64 169.824C166.202 170.166 166.67 169.322 166.148 168.954ZM57.4071 -18.991C51.1025 -26.6804 44.6192 -34.2311 38.1383 -41.7721C37.8584 -42.0976 37.3992 -41.6278 37.6694 -41.3031C44.0288 -33.6591 50.397 -26.0107 56.9322 -18.5161C57.2193 -18.1871 57.677 -18.6617 57.4071 -18.991ZM61.3103 -29.5096C60.6519 -31.0577 58.1353 -36.3258 57.512 -37.5537C57.347 -37.8787 56.8982 -37.5932 57.0336 -37.2742C57.5457 -36.0679 59.9592 -30.7293 60.745 -29.1791C60.9397 -28.7951 61.4707 -29.1325 61.3103 -29.5096ZM64.2624 -45.1644C64.2259 -45.3652 63.9819 -45.4787 63.7977 -45.4281C63.5865 -45.3702 63.4973 -45.165 63.5339 -44.9636C63.7472 -43.7903 63.917 -42.5981 64.2083 -41.4416C64.3004 -41.076 64.9291 -41.14 64.8843 -41.5332C64.7456 -42.7513 64.4817 -43.9583 64.2624 -45.1644ZM143.584 -40.5919C141.017 -37.0813 138.563 -33.4888 136.078 -29.9201C133.602 -26.3648 130.956 -22.8721 128.691 -19.1782C128.514 -18.8893 128.953 -18.5289 129.172 -18.8069C131.847 -22.1997 134.206 -25.8735 136.679 -29.4146C139.193 -33.0137 141.741 -36.5918 144.171 -40.2486C144.417 -40.6186 143.837 -40.9384 143.584 -40.5919ZM125.176 -38.7467C123.843 -36.9672 122.683 -35.0574 121.477 -33.1913C121.287 -32.8971 121.743 -32.6428 121.941 -32.9202C123.231 -34.7324 124.58 -36.5173 125.742 -38.4163C125.967 -38.7848 125.422 -39.075 125.176 -38.7467ZM119.752 -45.4911C118.701 -43.2863 117.74 -41.0346 116.787 -38.7862C116.634 -38.4256 117.156 -38.1053 117.323 -38.4727C118.346 -40.7196 119.365 -42.9748 120.289 -45.2647C120.413 -45.5713 119.895 -45.7906 119.752 -45.4911ZM22.8387 73.1927C19.4588 69.7282 15.9325 66.4015 12.4607 63.0296C12.1815 62.7585 11.7565 63.1824 12.0333 63.4569C15.4692 66.8653 18.8609 70.329 22.3876 73.6438C22.6866 73.9247 23.1264 73.4877 22.8387 73.1927ZM15.0641 82.2926C12.629 81.3747 10.1373 80.5883 7.67564 79.7442C7.31664 79.621 7.1648 80.1864 7.51943 80.3108C9.97579 81.1718 12.42 82.0971 14.9012 82.8835C15.2826 83.0044 15.4269 82.4294 15.0641 82.2926ZM170.994 63.3255C167.722 68.1952 164.503 73.1337 161.453 78.1461C161.263 78.4589 161.736 78.7251 161.939 78.4299C165.257 73.5899 168.44 68.6274 171.538 63.6432C171.753 63.2961 171.218 62.9921 170.994 63.3255ZM170.018 77.486C168.269 78.7196 166.585 80.0491 164.889 81.3541C164.621 81.5599 164.876 82.0231 165.16 81.818C166.915 80.5525 168.688 79.3047 170.389 77.9672C170.66 77.7541 170.302 77.2856 170.018 77.486ZM176.841 89.78C174.577 90.2178 172.341 90.8352 170.105 91.3957C169.763 91.4814 169.908 91.9953 170.25 91.9217C172.505 91.4365 174.785 91.003 177.01 90.3951C177.411 90.2857 177.24 89.7029 176.841 89.78ZM20.0799 77.1238C19.146 76.6592 19.043 76.6605 12.9329 74.2441C12.6525 74.1331 12.4458 74.6165 12.726 74.735C14.329 75.4128 18.9271 77.3938 19.8406 77.6914C20.1715 77.7992 20.397 77.2814 20.0799 77.1238Z" fill="#1B136A"/>
<path d="M52.0626 119.556C51.6058 117.622 51.0264 115.651 50.0354 113.906C48.9686 112.027 47.4008 110.377 45.3727 109.554C41.0141 107.785 36.2737 110.388 33.7572 113.959C32.1194 116.283 30.8792 119.703 30.7254 121.562C30.7041 121.818 31.1176 121.938 31.2243 121.697C32.039 119.855 33.2223 113.681 38.3255 110.996C42.2976 108.907 46.4178 109.858 48.9814 114.114C50.7975 117.129 51.0218 120.463 51.5955 121.667C51.7825 122.06 52.3707 121.847 52.3777 121.456C52.3892 120.808 52.2104 120.183 52.0626 119.556ZM150.517 117.235C147.997 108.448 137.781 105.085 131.958 113.438C130.216 115.937 129.317 118.948 128.68 121.895C128.585 122.334 129.237 122.52 129.357 122.081C130.561 117.674 132.132 112.793 136.463 110.512C140.989 108.127 147.464 110.574 149.481 117.324C149.848 118.551 149.943 119.785 150.129 121.042C150.211 121.599 151.04 121.424 151.067 120.915C151.133 119.701 150.85 118.397 150.517 117.235Z" fill="#E5E5FF"/>
<path d="M110.026 43.4352H71.9684C69.7151 43.4352 67.8884 41.6086 67.8884 39.3552C67.8884 28.9805 76.299 20.5698 86.6738 20.5698H95.3207C105.696 20.5698 114.106 28.9803 114.106 39.3552C114.106 41.6085 112.279 43.4352 110.026 43.4352ZM35.4224 -5.57586C33.6552 -3.22387 31.7183 1.68913 30.858 4.50249C29.7859 8.00864 29.1553 11.6613 28.9545 15.3213C28.8433 17.3481 28.6994 19.569 29.1413 21.5619C29.2285 21.9551 29.7967 21.8436 29.8165 21.4704C29.9109 19.6978 29.7074 17.9078 29.769 16.1275C29.9575 10.6782 31.1516 5.31325 33.1929 0.346921C33.9898 -1.5916 35.0531 -3.38528 35.9161 -5.28728C36.0697 -5.62573 35.6434 -5.86986 35.4224 -5.57586ZM30.4842 40.9634C30.4366 40.1623 30.4121 39.3298 30.2215 38.5479C30.1533 38.2681 29.7913 38.3667 29.7595 38.6103C29.6493 39.4532 29.7234 40.2389 29.8184 42.209C29.8376 42.6074 29.8465 43.0119 29.9444 43.4001C30.0153 43.6816 30.5074 43.7181 30.5515 43.4001C30.6618 42.6047 30.5317 41.7623 30.4842 40.9634ZM153.432 20.5907C153.353 14.4055 152.342 8.14084 150.622 2.65454C150.328 1.71858 150.089 0.561435 149.535 -0.256358C149.415 -0.434345 149.067 -0.391037 149.09 -0.135815C149.2 1.07023 149.557 1.10698 150.7 5.55877C151.677 9.36344 152.322 13.3186 152.575 17.4468C152.821 21.4637 152.55 22.131 152.714 23.5197C152.751 23.8386 153.261 23.9852 153.332 23.6034C153.513 22.6273 153.445 21.5793 153.432 20.5907ZM153.408 39.2546C153.309 38.3183 153.237 37.3894 153.01 36.4756C152.941 36.1953 152.531 36.2661 152.52 36.5419C152.483 37.489 152.604 38.4202 152.697 39.363C152.79 40.2971 152.85 41.2396 153.019 42.1631C153.086 42.531 153.674 42.4421 153.666 42.0756C153.645 41.1329 153.508 40.192 153.408 39.2546ZM153.405 52.7287C153.385 52.4228 152.941 52.4199 152.927 52.7287C152.676 58.0771 153.059 70.4665 152.964 79.0207C152.958 79.5567 153.811 79.5566 153.796 79.0207C153.555 70.2196 153.761 58.3772 153.405 52.7287ZM67.9872 -22.6694C65.3449 -16.3933 63.2761 -7.57181 62.9606 1.37866C62.8773 3.74033 62.9984 6.07679 63.1402 8.43246C63.1594 8.7518 63.6589 8.75395 63.6395 8.43246C63.205 1.21141 64.0622 -7.67129 66.4341 -15.9038C67.0767 -18.1338 67.8623 -20.3066 68.6641 -22.4829C68.8231 -22.9141 68.1577 -23.0745 67.9872 -22.6694Z" fill="#1B136A"/>
<path d="M62.6124 63.2425C62.6021 62.8941 62.0706 62.892 62.0696 63.2425C62.0291 76.4226 62.7955 130.001 62.7947 129.943C62.802 130.492 63.6559 130.493 63.6487 129.943C63.484 117.372 62.9636 75.1581 62.6124 63.2425ZM63.2359 36.1209C63.2246 35.7441 62.7066 35.7637 62.6642 36.1209C62.5017 37.4891 62.2969 44.7648 62.2797 45.5365C62.2724 45.865 62.7649 45.8591 62.7863 45.5365C62.8511 44.5584 63.2779 37.5103 63.2359 36.1209ZM120.382 52.0068C120.341 34.7704 120.804 26.9957 118.035 19.4425C116.338 14.8129 113.411 10.531 109.106 7.98621C108.753 7.77712 108.434 8.32477 108.785 8.53623C112.645 10.86 115.36 14.6604 116.993 18.8052C118.885 23.6064 119.324 28.819 119.447 33.9338C119.618 41.0276 119.474 83.1515 119.644 86.8227C119.667 87.3202 120.398 87.3219 120.418 86.8227C120.496 84.9721 120.382 51.9423 120.382 52.0068ZM119.688 110.66C119.4 108.27 119.44 108.893 119.321 108.282C119.264 107.985 118.783 108.053 118.795 108.353C118.81 108.722 118.762 108.767 118.85 109.552C119.004 110.93 119.113 112.036 119.327 113.136C119.39 113.461 119.915 113.387 119.902 113.058C119.871 112.252 119.784 111.461 119.688 110.66ZM68.6967 136.574C68.4701 136.999 67.7378 139.662 67.5846 140.249C67.4965 140.586 67.9867 140.713 68.101 140.391C68.3283 139.752 69.1892 137.217 69.2429 136.722C69.2747 136.428 68.8271 136.33 68.6967 136.574ZM75.0953 137.48C75.0458 137.234 74.6656 137.187 74.553 137.409C74.4643 137.584 74.453 137.785 74.4303 137.977C74.3632 138.544 74.3165 138.911 74.2704 139.498C74.2463 139.805 74.7514 139.876 74.8106 139.571C74.8751 139.239 74.9328 138.908 74.9842 138.574C75.0941 137.86 75.1377 137.691 75.0953 137.48ZM79.831 136.635C79.7472 136.365 79.2853 136.314 79.2309 136.635C79.1748 136.966 79.2243 137.297 79.2483 137.63C79.4285 140.131 79.3636 138.956 79.5227 140.594C79.5549 140.926 80.063 140.939 80.051 140.594C80.0492 140.542 79.9915 137.152 79.831 136.635ZM102.91 135.796C102.695 136.385 102.585 137.008 102.449 137.619C102.231 138.603 102.192 138.757 102.162 138.975C102.095 139.463 102.148 139.26 102.131 139.48C102.111 139.737 102.522 139.879 102.65 139.551C102.783 139.209 102.743 139.535 102.944 138.675C103.318 137.086 103.471 136.532 103.536 135.881C103.567 135.562 103.052 135.407 102.91 135.796ZM107.154 137.954C106.978 136.096 106.991 135.984 106.872 135.726C106.753 135.466 106.332 135.543 106.27 135.805C106.212 136.051 106.248 136.189 106.366 137.303C106.501 138.583 106.502 138.648 106.681 138.844C106.795 138.97 107.007 138.929 107.09 138.791C107.209 138.592 107.187 138.309 107.154 137.954ZM112.894 137.359C112.591 135.797 112.68 136.2 112.413 135.259C112.324 134.946 111.781 134.991 111.823 135.339C111.865 135.698 111.891 136.059 111.964 136.413C112.412 138.589 112.436 138.927 112.671 139.568C112.778 139.86 113.262 139.841 113.246 139.49C113.216 138.776 113.03 138.059 112.894 137.359Z" fill="#1B136A"/>
<path d="M36.8421 137.896C36.6114 138.212 36.4779 138.617 36.3598 138.987C36.1853 139.533 36.078 139.739 36.1516 140.154C36.1863 140.35 36.4311 140.366 36.5568 140.261C36.8432 140.021 36.8734 139.841 37.1353 139.2C37.2834 138.838 37.4229 138.454 37.449 138.06C37.4685 137.767 37.0645 137.591 36.8421 137.896ZM45.0063 137.875C44.964 137.475 44.5166 137.492 44.4129 137.715C44.2215 138.126 44.1372 138.832 44.052 139.503C44.0051 139.874 43.9069 140.351 44.2775 140.395C44.6293 140.437 44.6874 139.989 44.7636 139.622C44.8475 139.217 45.0493 138.282 45.0063 137.875ZM49.2206 139.476C49.119 138.949 49.0054 137.952 48.5147 138.018C47.9706 138.091 48.2935 139.102 48.4283 139.661C48.4696 139.832 48.5608 140.034 48.7111 140.141C48.8448 140.334 49.1313 140.252 49.1651 140.05C49.2559 139.899 49.2564 139.662 49.2206 139.476ZM134.663 138.421C134.601 138.165 134.262 138.087 134.082 138.268C133.928 138.422 133.867 138.627 133.81 138.832C133.556 139.752 133.437 140.146 133.54 140.376C133.558 140.652 133.871 140.739 134.027 140.517C134.092 140.478 134.143 140.422 134.182 140.338C134.248 140.194 134.314 140.067 134.462 139.549C134.603 139.057 134.735 138.72 134.663 138.421ZM140.346 138.945C139.952 138.855 139.845 139.362 139.729 139.717C139.661 139.924 139.602 140.148 139.608 140.366C139.615 140.641 139.959 140.732 140.09 140.566C140.131 140.514 140.18 140.462 140.212 140.404C140.344 140.163 140.554 139.532 140.565 139.48C140.58 139.408 140.581 139.332 140.585 139.259C140.593 139.123 140.479 138.975 140.346 138.945ZM146.385 139.962C146.149 136.974 146.172 136.953 146.036 136.583C145.942 136.328 145.501 136.255 145.443 136.583C145.367 137.006 145.412 137.258 145.568 138.834C145.768 140.862 145.779 140.609 145.821 141.091C145.857 141.486 146.479 141.49 146.444 141.091C146.41 140.715 146.415 140.338 146.385 139.962Z" fill="#E5E5FF"/>
</g>
<defs>
<clipPath id="clip0_108_151">
<rect width="150" height="150" fill="white"/>
</clipPath>
</defs>
</svg>
