<svg width="150" height="150" viewBox="0 0 150 150" fill="none" xmlns="http://www.w3.org/2000/svg">
<g clip-path="url(#clip0_107_117)">
<rect width="150" height="150" fill="#B4B2FA"/>
<path d="M215.896 37.8498C213.571 32.6687 209.444 28.5876 204.109 26.5716C198.512 24.4565 192.191 24.8995 186.509 26.4315C173.75 29.8711 162.671 40.0456 151.388 39.6024C146.525 39.4113 140.947 35.6059 143.253 30.1988C144.988 26.1292 148.838 23.1689 151.245 19.513C153.951 15.4049 154.802 10.2428 152.136 5.86652C149.228 1.09064 143.52 -1.43326 138.054 -1.32126C131.1 -1.17865 124.667 2.26969 118.447 5.01113C73.8316 24.6757 71.2773 26.2297 57.6937 31.774C54.9086 32.9106 51.3799 34.273 48.3947 33.0841C46.3088 32.2532 44.6114 30.3441 45.5315 28.0407C46.3972 25.8732 48.0853 24.1276 48.9444 21.9368C49.902 19.4949 49.8328 16.8211 48.32 14.6071C45.2038 10.0466 38.7906 10.7023 34.0463 11.1456C19.1279 12.5397 17.0528 12.5716 13.6932 13.6426C8.27132 15.371 3.97871 19.3439 3.39638 25.1896C3.16732 27.4891 6.00878 28.6827 7.77781 27.7039C9.84856 26.5582 12.9389 24.9165 15.4099 25.481C16.2908 25.6822 16.812 26.0708 17.0792 26.5673C15.0232 30.2447 10.5946 33.2628 7.82085 35.6924C-2.02193 44.3143 -6.62201 55.574 -9.93514 68.6518C-11.7009 75.6218 -13.5795 82.589 -15.114 89.6139C-17.7484 101.674 -17.9463 114.723 -8.65685 124.028C-1.68035 131.016 8.73302 134.461 18.4614 132.526C25.1014 131.205 29.8227 126.684 34.8407 127.496C41.5506 128.581 37.3305 137.132 35.6725 140.631C33.0384 146.19 31.6027 152.1 35.2206 157.621C38.6334 162.829 44.3921 165.375 50.4348 165.986C62.9595 167.253 76.1855 162.389 87.1764 156.848C110.981 144.849 130.526 124.568 154.522 115.534C166.412 111.058 176.905 111.33 189.993 100.721C198.958 93.4533 205.64 83.5637 210.976 73.4366C216.714 62.5477 221.26 49.8042 215.896 37.8498Z" fill="#4A53E2"/>
<path d="M30.066 29.6036C30.0817 29.6018 30.0743 29.6029 30.0922 29.6003C30.1006 29.5976 30.0919 29.5969 30.066 29.6036Z" fill="#E5E5FF"/>
<path d="M31.5427 28.9176C31.2703 28.4308 30.6947 28.2241 30.1666 28.3859C29.7409 28.5161 29.6392 28.9628 29.8493 29.3036C29.8834 29.4892 29.8621 29.469 29.9352 29.6093C29.8014 29.6081 29.6789 29.6251 29.5599 29.6729C29.3958 29.5906 29.1714 29.6248 29.1257 29.8372C29.0981 29.9656 29.101 30.0872 29.1178 30.2117C28.9884 31.4294 31.126 31.7424 31.6688 30.3239C31.8413 29.8732 31.7768 29.3358 31.5427 28.9176ZM29.191 49.9858C26.9998 49.9858 26.9962 53.3912 29.191 53.3912C31.3822 53.3912 31.3858 49.9858 29.191 49.9858ZM114.632 67.9304C114.631 67.7843 114.594 67.648 114.521 67.5217C114.456 67.321 114.344 67.1473 114.186 67.0006C113.276 66.1642 112.089 66.5148 111.564 67.4111C111.563 67.4115 111.441 67.6689 111.255 67.9796C111.128 68.2808 110.999 68.5029 111.086 68.8893C111.086 69.018 111.119 69.1381 111.183 69.2493C111.399 69.9135 112.383 70.4233 113.207 69.9314C113.69 69.6432 114.07 69.5626 114.439 68.963C114.584 68.6203 114.73 68.3684 114.632 67.9304ZM69.6659 76.8656C68.0965 76.8656 68.0939 79.3046 69.6659 79.3046C71.2352 79.3046 71.2379 76.8656 69.6659 76.8656ZM205.224 45.6547C205.103 45.2218 204.92 45.0844 204.58 44.6511C204.43 44.4896 204.253 44.3754 204.047 44.3085C203.462 44.0014 202.63 44.223 202.237 44.6511C201.948 44.9669 201.732 45.3813 201.752 45.8226C201.772 45.9694 201.792 46.1162 201.811 46.263C201.966 46.8135 202.267 47.0169 202.53 47.2232C202.676 47.3805 202.849 47.4916 203.048 47.5566C203.617 47.855 204.426 47.6407 204.81 47.2232C205.092 46.916 205.301 46.5126 205.282 46.0833C205.263 45.9404 205.243 45.7975 205.224 45.6547ZM177.506 96.4331C177.469 96.155 177.498 96.0625 177.393 95.8617C177.267 95.4738 176.802 95.1943 176.426 95.2111C175.849 95.237 175.672 95.5274 175.512 95.7354C175.36 95.9977 175.381 96.1658 175.345 96.4331C175.222 96.7851 175.266 97.1083 175.431 97.3925C175.875 98.1516 176.976 98.1516 177.421 97.3925C177.586 97.1073 177.629 96.784 177.506 96.4331ZM109.292 129.967C109.09 129.728 108.683 129.59 108.381 129.59C107.634 129.59 107.064 130.243 107.092 130.879C107.107 131.203 107.211 131.572 107.47 131.79C108.057 132.283 108.394 132.654 108.935 132.654C109.643 132.654 110.183 132.034 110.156 131.433C110.075 130.826 110.119 130.949 109.292 129.967ZM67.9061 149.304C65.9518 149.304 65.9485 152.341 67.9061 152.341C69.8604 152.341 69.8637 149.304 67.9061 149.304ZM47.1964 93.2808C46.7846 92.7477 46.2166 92.7338 45.6156 92.6792C45.2767 92.6483 44.8554 92.858 44.6231 93.0902C43.6824 94.0313 44.5397 95.5845 45.6156 95.4863C46.141 95.4384 46.6945 95.4172 47.093 95.0187C47.3009 94.8107 47.5315 94.3839 47.518 94.0828C47.5052 93.7966 47.3696 93.5049 47.1964 93.2808ZM1.39507 64.3247C1.35574 64.2625 1.31637 64.2005 1.27703 64.1383C0.869127 63.494 0.126271 63.218 -0.57593 63.4112C-1.69226 63.2476 -2.44824 64.5957 -1.65665 65.4753C-1.61401 65.5762 -1.57138 65.6773 -1.52875 65.7783C-1.29358 66.2144 -0.646643 66.6175 -0.125842 66.583C-0.0478854 66.5779 0.0301008 66.5726 0.108087 66.5674C0.642632 66.532 1.11624 66.3057 1.39508 65.8292C1.65699 65.3816 1.67736 64.7705 1.39507 64.3247ZM138.374 9.46076C138.323 9.44555 137.152 8.6266 135.796 9.53195C135.161 9.82124 134.665 10.5058 134.697 11.2135C134.729 11.9359 135.139 12.6054 135.799 12.8972C137.14 13.7906 138.213 13.0149 138.374 12.9664C139.113 12.745 139.745 12.0181 139.709 11.2135C139.672 10.3988 139.168 9.69853 138.374 9.46076Z" fill="#E5E5FF"/>
<path d="M102.513 76.1485C102.31 75.5227 101.861 75.0936 101.294 74.9131C100.941 74.5385 100.362 74.4201 99.8846 74.6215C99.4147 74.8198 99.0772 75.3218 99.1043 75.8376C98.3475 77.3231 99.9037 78.963 101.452 78.3096C102.254 77.9712 102.794 77.018 102.513 76.1485ZM46.5144 52.0015C46.0918 51.6399 45.6091 51.4925 45.0869 51.3367C44.8964 51.2797 44.6882 51.2819 44.487 51.3208C43.7636 51.1767 43.2843 51.4723 43.0793 51.9579C42.8765 52.4385 43.0334 53.1218 43.5407 53.3658C43.626 53.4069 43.7114 53.448 43.7968 53.4891C43.9463 53.6496 44.1397 53.7773 44.3883 53.8706C44.7885 54.0207 45.1779 54.1951 45.6167 54.169C46.1313 54.1384 46.5718 53.8745 46.7769 53.3886C46.9617 52.9507 46.8981 52.33 46.5144 52.0015ZM18.0325 120.907C17.8167 120.499 17.3646 120.383 16.928 120.228C16.183 119.964 15.2678 120.598 15.2678 121.493C15.2678 122.418 16.2183 123.009 16.928 122.758C17.3604 122.605 17.6819 122.533 17.9418 122.196C18.2529 121.793 18.2605 121.339 18.0325 120.907ZM161.618 97.7425C161.194 97.3525 160.698 97.149 160.084 97.1599C159.506 96.8492 158.859 96.8577 158.271 97.1056C157.404 97.4717 156.889 98.3892 156.93 99.0997C157.019 100.626 158.21 101.854 159.767 101.587C160.193 101.587 160.649 101.486 161.005 101.272C161.851 100.764 162.15 100.093 162.218 99.1904C162.254 98.7116 161.968 98.0636 161.618 97.7425ZM134.026 26.6346C134.209 26.0094 134.047 25.7329 133.876 25.3271C133.645 24.9362 133.441 24.848 132.951 24.4878C132.609 24.3435 132.359 24.1991 131.924 24.2966C131.779 24.297 131.643 24.3336 131.517 24.4065C130.879 24.6142 130.409 25.4374 130.556 26.0925C130.575 26.5104 130.767 26.7176 130.986 27.0164C131.645 28.2375 133.729 28.0727 134.026 26.6346ZM59.9655 21.7488C59.1823 21.0296 58.1706 21.1503 57.5721 21.7488C57.4071 21.9021 57.2904 22.0836 57.2222 22.2935C56.9126 22.8828 57.1272 23.7338 57.5721 24.1421C57.9033 24.4462 58.3103 24.6378 58.7688 24.6378C59.432 24.6378 60.1186 24.2024 60.3154 23.5976C60.6257 23.0067 60.4092 22.156 59.9655 21.7488ZM3.75388 42.2234C2.95249 41.4879 1.89381 41.5779 1.2483 42.2234C1.07552 42.3839 0.9534 42.574 0.881947 42.7936C0.557782 43.4108 0.782506 44.3015 1.2483 44.7291C1.59493 45.0472 2.02102 45.248 2.50107 45.248C3.19548 45.248 3.91425 44.792 4.1202 44.1589C4.44437 43.5417 4.21963 42.6511 3.75388 42.2234Z" fill="#FF6A00"/>
<path d="M81.9365 -2.83247C74.0569 -1.93879 73.3746 -1.2483 72.5748 6.64134C71.6812 -1.23821 70.9907 -1.92052 63.101 -2.72028C70.9806 -3.61396 71.6629 -4.30445 72.4627 -12.1941C73.3563 -4.31453 74.0468 -3.63222 81.9365 -2.83247ZM149.891 117.611C143.628 118.322 143.085 118.871 142.45 125.143C141.739 118.879 141.19 118.336 134.918 117.701C141.182 116.99 141.725 116.441 142.36 110.17C143.071 116.433 143.62 116.976 149.891 117.611ZM166.595 3.93853C158.374 4.87097 157.662 5.59142 156.827 13.8233C155.895 5.60194 155.175 4.89003 146.943 4.05557C155.164 3.12313 155.876 2.40268 156.71 -5.82923C157.643 2.39216 158.363 3.10408 166.595 3.93853ZM63.101 123.515C49.8164 125.022 48.6661 126.186 47.3177 139.488C45.811 126.203 44.6469 125.053 31.3453 123.704C44.6299 122.198 45.7802 121.033 47.1286 107.732C48.6353 121.016 49.7994 122.167 63.101 123.515Z" fill="#FFAA00"/>
<path d="M1.25963 87.3603C-0.119409 85.8588 -2.27264 85.5703 -4.21884 85.3801C-5.51811 85.2533 -8.3095 84.9694 -8.66329 86.7843C-9.02184 88.6236 -6.4503 89.2033 -5.16526 89.4571C-3.26546 89.8325 -0.883547 90.2472 0.849225 89.182C1.45974 88.8066 1.82902 87.9803 1.25963 87.3603ZM-1.56634 94.1732C-3.58766 94.4164 -7.26056 95.2769 -7.93061 97.506C-8.17743 98.327 -7.84308 99.2389 -6.99378 99.5519C-4.76159 100.374 -1.93232 98.072 -0.476335 96.5536C0.428757 95.6097 -0.154137 94.0033 -1.56634 94.1732ZM5.05193 102.566C4.14589 103.275 3.23986 103.983 2.33382 104.692C1.45352 105.38 0.555772 105.927 0.152022 107.013C-0.218971 108.011 0.65376 109.082 1.70796 108.908C2.86361 108.717 3.57727 107.93 4.43065 107.189C5.29874 106.436 6.16683 105.682 7.0349 104.928C8.53436 103.626 6.61668 101.342 5.05193 102.566ZM17.1123 104.695C16.2745 104.831 15.5376 105.719 15.7412 106.595C15.9628 107.548 16.1843 108.501 16.4059 109.454C16.6682 110.583 16.8106 111.394 17.9317 111.935C18.5027 112.211 19.2273 111.891 19.5798 111.423C20.2494 110.536 19.9496 109.715 19.6984 108.736C19.4698 107.846 19.2413 106.956 19.0128 106.066C18.7906 105.2 18.0517 104.542 17.1123 104.695ZM7.36049 76.3829C6.29434 76.4156 5.441 77.3901 5.62511 78.4698C5.81354 79.575 6.04701 80.5882 6.42361 81.646C6.58589 82.1018 7.06528 82.3444 7.50678 82.4203C7.75455 82.4628 7.97557 82.3818 8.19664 82.3052C8.65844 82.1454 8.88748 81.6608 8.97094 81.2221C9.15516 80.2536 9.20517 79.3455 9.2194 78.3603C9.23506 77.2786 8.51237 76.3476 7.36049 76.3829ZM83.9785 29.1242C82.5356 28.616 81.2293 28.5935 79.7121 28.5827C78.2722 28.5726 76.8285 28.501 75.4938 29.1151C74.3141 29.6576 74.4456 31.3241 75.5925 31.8038C76.9419 32.3683 78.3912 32.2219 79.8211 32.1624C81.3438 32.099 82.634 32.0201 84.0643 31.4609C85.0941 31.0585 84.9795 29.4768 83.9785 29.1242ZM85.1887 18.3183C84.4753 17.5421 82.9472 16.6793 81.9409 17.5692C81.0478 18.3591 81.4604 19.8828 82.0732 20.6746C82.9889 21.8575 84.2555 22.6381 85.4847 23.4291C86.5107 24.0894 87.9979 23.0306 87.3971 21.8381C86.7631 20.58 86.1567 19.3715 85.1887 18.3183ZM94.2467 10.0215C93.2736 9.10186 91.319 9.33731 91.2416 10.9493C91.1828 12.1727 91.2967 12.9963 91.7698 14.1365C92.176 15.1156 92.6273 16.0547 93.1298 16.9884C93.6053 17.872 94.5612 18.3846 95.554 18.0655C96.4193 17.7874 97.2468 16.8033 96.9701 15.822C96.6723 14.7658 96.3557 13.737 95.9637 12.7125C95.5408 11.6071 95.1118 10.8392 94.2467 10.0215ZM114.189 22.7006C112.732 22.6982 111.718 23.5869 110.626 24.4745C109.685 25.2402 108.551 26.1342 108.456 27.4188C108.398 28.2022 108.931 28.7195 109.652 28.8795C110.846 29.1449 112.039 28.2562 112.987 27.627C114.013 26.9463 115.27 26.2719 115.646 25.0385C115.943 24.0665 115.379 22.7026 114.189 22.7006ZM108.539 16.5418C108.401 16.1872 108.021 16.0629 107.678 16.0819C107.087 16.1148 106.649 16.1854 106.182 16.5145C105.014 17.1497 104.17 18.6786 104.079 19.9223C103.994 21.101 105.269 22.2136 106.418 21.5932C107.356 21.0869 107.5 20.905 108.072 20.0212C108.516 19.3362 108.927 18.6817 108.823 17.8536C108.836 17.415 108.728 17.027 108.539 16.5418ZM84.0764 46.7918C83.5588 47.4466 83.2379 48.1359 82.9152 48.9024C82.5725 49.7161 82.3081 50.551 82.5652 51.4341C82.8146 52.2904 83.7828 53.1725 84.746 52.5984C85.6655 52.0505 86.1446 51.355 86.5078 50.3611C86.8051 49.5475 87.0457 48.7899 87.1149 47.9216C87.2522 46.1993 85.1025 45.4935 84.0764 46.7918ZM77.6675 96.0991C76.8879 95.525 76.0048 95.3054 75.0934 95.0189C74.1377 94.7183 73.2165 94.4575 72.2172 94.7171C71.1973 94.982 70.4577 96.2557 71.3095 97.158C72.0639 97.9572 72.9116 98.2824 73.949 98.5515C74.9799 98.8189 75.9197 99.1007 76.9959 99.0198C78.4706 98.9089 78.7253 96.8781 77.6675 96.0991ZM73.9417 104.99C72.1404 105.391 70.0657 105.346 68.5665 106.6C67.6485 107.367 68.0429 109.257 69.3846 109.25C71.4239 109.239 72.869 107.975 74.578 107.085C75.6304 106.536 75.2162 104.706 73.9417 104.99ZM74.4347 119.12C73.876 119.821 73.2715 120.779 73.2396 121.68C73.1923 123.016 74.5646 124.313 75.9137 123.59C77.5664 122.705 78.7943 120.254 78.1363 118.427C77.7834 117.447 76.0115 117.143 74.4347 119.12ZM94.3996 121.383C93.5037 119.726 91.2542 120.511 91.3448 122.311C91.3804 123.017 91.4514 123.652 91.6191 124.339C91.8241 125.178 92.0465 125.826 92.6944 126.273C93.5872 127.128 94.8111 126.75 95.2486 125.72C95.9886 124.394 95.056 122.598 94.3996 121.383ZM105.068 108.88C103.496 108.578 101.516 109.096 100.074 109.714C98.7684 110.273 99.3145 111.957 100.489 112.212C102.066 112.554 104.068 112.584 105.584 111.98C107.209 111.333 106.527 109.159 105.068 108.88ZM148.432 37.0524C147.713 36.8255 146.809 37.2549 146.771 38.0883C146.705 39.5161 147.099 40.4028 147.893 41.5822C148.643 42.6952 149.425 43.7295 150.58 44.4372C151.65 45.0928 153.263 44.3045 152.988 42.9292C152.523 40.6002 150.766 37.7893 148.432 37.0524ZM167.293 33.5977C165.655 33.218 164.992 35.0978 164.759 36.3452C164.509 37.6862 164.229 39.0058 165.027 40.2083C165.3 40.6191 166.087 40.8047 166.515 40.543C167.738 39.7958 168.047 38.5022 168.389 37.1865C168.709 35.9529 168.934 33.9782 167.293 33.5977ZM184.965 44.3595C184.123 43.0706 182.389 43.476 181.319 44.1972C180.351 44.8501 179.013 45.8609 179.02 47.1353C179.023 47.8988 179.367 48.7107 180.161 48.965C181.498 49.3931 182.699 48.6339 183.751 47.8451C184.753 47.0928 185.782 45.6104 184.965 44.3595ZM181 61.993C178.538 62.509 179.121 66.1819 181.625 65.8553C183.278 65.6397 186.94 65.6394 186.519 63.0533C186.096 60.4508 182.631 61.6509 181 61.993ZM171.224 77.0945C170.512 76.126 169.474 75.088 168.307 74.7426C167.224 74.4223 166.064 75.2267 166.259 76.4238C166.463 77.6719 167.31 78.7643 168.188 79.6441C168.594 80.0519 169.101 80.4373 169.647 80.6403C170.03 80.7829 170.377 80.7204 170.764 80.6597C170.726 80.6656 171.272 80.5688 171.023 80.5749C171.387 80.5659 171.668 80.3774 171.728 79.9979C171.688 80.2512 171.784 79.8826 171.818 79.7851C171.919 79.4933 172.008 79.2591 171.999 78.9422C171.978 78.2864 171.605 77.6125 171.224 77.0945ZM156.764 73.9547C156.54 75.8071 155.706 78.5397 157.439 79.9026C157.656 80.0733 158.016 80.1054 158.26 79.9779C160.206 78.9625 159.895 76.1334 160.016 74.2795C160.153 72.1803 157.017 71.8622 156.764 73.9547Z" fill="#E5E5FF"/>
<path d="M83.3679 111.394L94.1008 38.5179L13.6191 95.1465L11.9241 92.7381L98.0135 32.1635L87.197 105.607L161.475 60.2817L100.089 34.5928L101.226 31.8759L167.933 59.7919L83.3679 111.394Z" fill="#FF6A00"/>
<path d="M12.6021 103.559C17.826 103.559 22.0609 99.3243 22.0609 94.1003C22.0609 88.8764 17.826 84.6416 12.6021 84.6416C7.3782 84.6416 3.14337 88.8764 3.14337 94.1003C3.14337 99.3243 7.3782 103.559 12.6021 103.559Z" fill="#FFAA00"/>
<path d="M97.5607 43.7625C103.271 43.7625 107.899 39.1336 107.899 33.4237C107.899 27.7138 103.271 23.085 97.5607 23.085C91.8508 23.085 87.222 27.7138 87.222 33.4237C87.222 39.1336 91.8508 43.7625 97.5607 43.7625Z" fill="#FFAA00"/>
<path d="M86.3019 119.123C91.7688 119.123 96.2006 114.691 96.2006 109.224C96.2006 103.758 91.7688 99.3257 86.3019 99.3257C80.8349 99.3257 76.4031 103.758 76.4031 109.224C76.4031 114.691 80.8349 119.123 86.3019 119.123Z" fill="#FFAA00"/>
<path d="M163.419 71.3155C171.198 71.3155 177.505 65.0086 177.505 57.2287C177.505 49.4488 171.198 43.142 163.419 43.142C155.639 43.142 149.332 49.4488 149.332 57.2287C149.332 65.0086 155.639 71.3155 163.419 71.3155Z" fill="#FFAA00"/>
<path d="M15.3324 98.2593C18.6531 98.2593 21.345 95.5673 21.345 92.2466C21.345 88.926 18.6531 86.234 15.3324 86.234C12.0117 86.234 9.31976 88.926 9.31976 92.2466C9.31976 95.5673 12.0117 98.2593 15.3324 98.2593Z" fill="#FF6A00"/>
<path d="M96.4046 43.4817C99.8209 43.4817 102.59 40.7123 102.59 37.296C102.59 33.8797 99.8209 31.1102 96.4046 31.1102C92.9883 31.1102 90.2189 33.8797 90.2189 37.296C90.2189 40.7123 92.9883 43.4817 96.4046 43.4817Z" fill="#FF6A00"/>
<path d="M87.3614 112.034C90.7525 112.034 93.5016 109.285 93.5016 105.893C93.5016 102.502 90.7525 99.7532 87.3614 99.7532C83.9702 99.7532 81.2211 102.502 81.2211 105.893C81.2211 109.285 83.9702 112.034 87.3614 112.034Z" fill="#FF6A00"/>
<path d="M156.769 63.8917C161.142 63.8917 164.687 60.3467 164.687 55.9737C164.687 51.6007 161.142 48.0557 156.769 48.0557C152.396 48.0557 148.851 51.6007 148.851 55.9737C148.851 60.3467 152.396 63.8917 156.769 63.8917Z" fill="#FF6A00"/>
<path d="M218.494 45.4158C218.408 45.0262 217.735 44.9936 217.674 45.4158C217.519 46.4834 217.571 47.5468 217.551 48.6235C217.248 65.0061 209.45 81.0793 197.142 91.8949C192.058 96.3617 188.414 98.1233 184.961 100.19C184.624 100.392 184.845 101.001 185.239 100.849C189.335 99.263 193.108 96.567 196.487 93.8004C209.585 83.076 218.161 66.4529 218.665 49.169C218.701 47.9169 218.768 46.6441 218.494 45.4158ZM212.178 32.7634C211.493 32.4256 211.409 32.4756 211.09 32.3977C210.587 32.2745 210.431 32.9632 210.883 33.1521C211.027 33.2126 211.153 33.3146 211.297 33.3842C212.894 34.1555 214.085 35.6367 214.527 37.2716C214.698 37.9037 214.743 38.5481 214.836 39.1928C214.897 39.6148 215.524 39.5504 215.627 39.1928C216.207 37.1862 214.682 33.9994 212.178 32.7634ZM30.5564 124.501C28.4795 125.757 26.4405 127.045 24.1731 127.938C21.9219 128.825 19.5502 129.434 17.1488 129.733C-5.3 132.53 -19.8981 111.114 -12.8998 91.5332C-12.7669 91.1614 -13.3848 90.8934 -13.5446 91.2613C-19.1112 104.07 -13.4246 121.862 0.71294 128.441C8.05355 131.857 16.5341 132.06 23.7533 129.47C26.4071 128.518 29.0959 127.239 31.1745 125.302C31.5988 124.907 31.0516 124.202 30.5564 124.501ZM66.9199 162.762C59.9211 166.78 52.0373 166.678 45.6474 163.657C42.707 162.267 41.8771 161.239 40.4867 160.267C40.1177 160.008 39.7839 160.548 40.0359 160.851C40.6339 161.568 41.4622 162.149 42.2172 162.692C49.7767 168.125 60.529 168.174 67.4618 163.689C68.0391 163.316 67.5235 162.415 66.9199 162.762ZM63.6569 28.7114C62.0918 29.8125 60.7554 31.1921 59.1449 32.2412C57.6551 33.2115 55.9403 34.0446 54.1408 34.1742C51.323 34.3772 47.8629 32.9537 47.3993 29.8461C46.9003 26.5004 49.807 23.253 48.6289 19.1538C47.733 16.0364 45.024 13.7039 42.0724 12.5715C37.7158 10.9001 32.8149 11.8177 28.4207 12.8274C27.9722 12.9304 28.1745 13.5621 28.6062 13.5004C32.7694 12.9053 37.2763 12.0522 41.3678 13.478C44.3898 14.531 47.3413 17.1321 47.7059 20.4709C48.1064 24.1387 45.0658 27.5626 46.494 31.2316C47.5954 34.0613 50.7691 35.485 53.6614 35.4555C55.6542 35.4351 57.5825 34.6794 59.2727 33.6661C61.0884 32.5774 62.9291 31.1741 64.3261 29.5787C64.7131 29.1368 64.201 28.3286 63.6569 28.7114ZM124.667 3.13137C123.758 3.08224 122.71 3.79528 121.909 4.16271C115.849 6.94192 114.971 7.30773 113.16 8.20239C112.593 8.4827 113.001 9.49007 113.598 9.23972C115.461 8.45878 116.305 8.04386 122.222 5.36111C124.211 4.45857 124.633 4.33592 124.981 3.89067C125.217 3.58868 125.077 3.15354 124.667 3.13137ZM170.155 47.1162C169.848 46.8784 169.409 47.2831 169.715 47.5555C175.493 52.7028 175.569 62.1746 170.295 66.9729C169.851 67.3774 170.53 68.0632 170.957 67.6344C176.82 61.7509 175.833 51.519 170.155 47.1162ZM161.174 67.4823C160.739 67.4276 160.445 67.4361 158.828 67.4325C158.625 67.4321 158.431 67.6109 158.441 67.8198C158.45 68.0293 158.611 68.2076 158.828 68.2071C160.49 68.2036 160.746 68.2113 161.174 68.1573C161.624 68.1009 161.63 67.5397 161.174 67.4823ZM17.6331 97.6099C16.4381 97.7799 15.3167 97.9026 14.1343 97.5685C11.7374 96.8914 10.0283 94.927 9.84267 92.3199C9.75225 91.0504 10.1049 89.9571 10.5359 88.7852C10.6448 88.4888 10.1919 88.214 9.99106 88.468C7.96082 91.0358 8.78695 96.9497 13.9007 98.4159C15.1751 98.7813 16.6975 98.8709 17.9079 98.2618C18.3009 98.064 17.9993 97.5579 17.6331 97.6099ZM85.6736 111.111C84.8011 111.297 83.9939 111.354 83.1327 111.065C80.8967 110.316 80.1843 107.846 81.3352 105.93C81.5674 105.544 81.8934 105.242 82.1297 104.86C82.2677 104.636 82.0372 104.317 81.7789 104.403C81.0013 104.663 80.5384 105.481 80.2489 106.208C79.9392 106.987 79.8642 107.845 80.0006 108.669C80.4833 111.586 84.0253 112.92 85.9396 111.742C86.2796 111.533 86.0539 111.031 85.6736 111.111ZM101.137 32.239C99.6044 28.6969 95.4122 27.7265 92.4671 29.6758C92.0659 29.9412 92.4391 30.5904 92.8464 30.3247C95.935 28.3109 100.187 29.9587 100.764 33.8859C100.836 34.3788 100.761 34.8869 100.853 35.3726C100.906 35.6492 101.357 35.7171 101.477 35.4541C101.91 34.5041 101.529 33.1441 101.137 32.239ZM30.0681 8.41043C29.1422 6.91975 28.8061 6.55951 23.3328 -0.832932C19.6016 -5.87194 20.846 -4.20994 18.2442 -7.67351C17.7114 -8.3826 17.1916 -9.25719 16.5187 -9.83746C16.2517 -10.0678 15.9139 -9.78425 16.0489 -9.47506C16.4255 -8.61269 17.1401 -7.82966 17.6896 -7.06892C17.8791 -6.80659 27.9893 7.1705 29.4658 8.87505C29.7519 9.20533 30.2962 8.7775 30.0681 8.41043ZM39.7197 0.194813C39.0249 -2.41591 36.6945 -8.67114 35.8833 -11.0442C35.7597 -11.4059 35.1846 -11.2526 35.3064 -10.8851C36.096 -8.50358 38.0196 -2.12556 39.0466 0.380325C39.212 0.783945 39.8386 0.641935 39.7197 0.194813ZM53.3355 -16.6519C52.8125 -3.09959 52.712 -2.70997 52.7914 -0.228699C52.8061 0.229329 53.442 0.209915 53.4894 -0.228699C53.7592 -2.72522 53.6879 -3.13004 54.1946 -16.6519C54.2153 -17.2047 53.3568 -17.2038 53.3355 -16.6519ZM150.774 147.459C149.832 144.733 148.63 142.087 147.523 139.425C146.438 136.816 145.473 134.098 144.165 131.591C144.005 131.284 143.501 131.495 143.605 131.827C144.457 134.57 145.71 137.22 146.796 139.877C147.87 142.505 148.868 145.185 150.101 147.742C150.281 148.115 150.91 147.853 150.774 147.459ZM164.214 138.394C162.562 136.574 156.424 130.735 156.373 130.686C155.516 129.871 154.674 128.934 153.694 128.267C153.445 128.097 153.087 128.441 153.269 128.692C153.837 129.473 154.133 129.719 158.358 133.835C160.117 135.548 161.837 137.308 163.704 138.903C164.055 139.203 164.529 138.741 164.214 138.394ZM180.606 128.752C179.033 127.768 178.497 127.508 168.333 122.215C167.884 121.981 167.486 122.655 167.935 122.897C177.583 128.096 178.403 128.57 180.238 129.381C180.658 129.566 181.013 129.006 180.606 128.752ZM182.103 1.64476C180.278 3.34537 179.759 3.92235 170.452 13.4548C170.093 13.8225 170.656 14.3862 171.016 14.0189C180.149 4.70283 180.846 4.04351 182.569 2.11117C182.851 1.79515 182.415 1.35355 182.103 1.64476ZM184.199 11.8329C182.82 12.6633 182.006 13.3033 176.646 17.2033C176.216 17.516 176.628 18.2396 177.068 17.9251C182.586 13.9831 183.453 13.4003 184.631 12.3931C184.942 12.1275 184.541 11.6269 184.199 11.8329ZM23.958 134.444C21.6681 136.511 15.5868 142.85 9.9033 148.546C9.63801 148.812 10.0495 149.224 10.3155 148.958C14.5502 144.731 22.3924 137.14 24.4135 134.9C24.6917 134.592 24.2665 134.166 23.958 134.444ZM25.8246 144.566C24.2851 147.5 22.8697 150.526 21.5597 153.57C21.4061 153.927 21.906 154.247 22.0962 153.884C23.635 150.95 25.0911 147.945 26.4008 144.902C26.5658 144.519 26.0289 144.176 25.8246 144.566Z" fill="#1B136A"/>
</g>
<defs>
<clipPath id="clip0_107_117">
<rect width="150" height="150" fill="white"/>
</clipPath>
</defs>
</svg>
