<svg width="150" height="150" viewBox="0 0 150 150" fill="none" xmlns="http://www.w3.org/2000/svg">
<g clip-path="url(#clip0_108_146)">
<rect width="150" height="150" fill="#AACAE2"/>
<path d="M40.1932 95.3635C35.4186 74.8665 30.6441 54.3695 25.8695 33.8725C24.9257 29.8204 20.2559 27.9223 16.7527 30.1667C5.7543 37.2129 -5.24406 44.2591 -16.2424 51.3053C-18.68 52.8669 -19.6621 55.9417 -18.5812 58.6272L1.49911 108.515C2.70127 111.501 6.0393 113.015 9.078 111.951C18.1575 108.773 27.237 105.594 36.3165 102.416C39.2198 101.4 40.891 98.3593 40.1932 95.3635Z" fill="#B4B2FA"/>
<path d="M45.6217 110.911L43.0136 112.808L60.4882 136.829L63.0963 134.931L45.6217 110.911Z" fill="#1B136A"/>
<path d="M20.5782 129.09L18.0122 131.044L36.0065 154.678L38.5726 152.724L20.5782 129.09Z" fill="#1B136A"/>
<path d="M-6.59233 87.3263C-5.52347 87.008 -5.55978 86.9611 0.749125 84.2648C23.455 74.5608 30.8214 71.4321 31.5897 71.0465C31.9699 70.8557 31.6917 70.333 31.3097 70.4663C28.7765 71.3506 26.3119 72.5226 23.837 73.5593C-6.89218 86.4324 -5.85754 85.9204 -6.87107 86.4893C-7.28413 86.7211 -7.10424 87.4788 -6.59233 87.3263Z" fill="#AACAE2"/>
<path d="M-1.34081 41.3117C-0.443681 40.9975 0.310312 41.4756 0.550785 42.1624L26.2288 115.494C26.4894 116.238 26.0973 117.053 25.3529 117.313C24.4558 117.627 23.7018 117.149 23.4613 116.463L-2.21667 43.1315C-2.47732 42.3871 -2.08519 41.5723 -1.34081 41.3117Z" fill="#AACAE2"/>
<path d="M14.738 108.581L-1.66726 68.0617L18.5717 57.8537C30.0389 100.629 29.395 98.5073 30.1716 100.596C30.3183 100.991 30.9161 100.76 30.8498 100.37C30.5315 98.4981 30.9749 100.324 19.4102 57.43C22.4774 55.8738 25.6202 54.279 28.7527 52.6295C29.1322 52.4297 28.8511 51.8424 28.4627 52.0286C25.3563 53.518 22.2643 55.0388 19.1776 56.5701C13.0678 34.0387 13.4551 35.1833 12.7458 33.2425C12.6293 32.9235 12.142 33.1095 12.1974 33.425C12.5035 35.167 12.2043 33.7653 18.3425 56.9864C11.5434 60.3669 4.77482 63.8116 -2.01143 67.2136C-9.55929 48.6065 -8.94863 49.995 -9.76819 48.2959C-9.9179 47.9854 -10.4751 48.1455 -10.3599 48.4929C-9.81857 50.1251 -10.2443 48.9583 -2.73968 67.5788C-10.5308 71.4837 -10.1563 71.2525 -10.6811 71.6751C-10.9665 71.9049 -10.7292 72.4238 -10.3641 72.3289C-9.03021 71.9825 -7.75509 71.1324 -6.52691 70.5129L-2.3964 68.4295L13.9921 108.941C14.1925 109.436 14.9371 109.073 14.738 108.581Z" fill="#E5E5FF"/>
<path d="M-23.6164 122.311L-2.79282 102.567L27.9529 137.612L5.6679 155.689L-23.6164 122.311Z" fill="#4A53E2"/>
<path d="M6.15221 125.721C-2.21155 116.188 -6.35593 105.961 -3.05984 102.836C0.286676 99.6628 10.0065 104.998 18.6034 114.797C27.2003 124.596 31.2257 134.927 27.6443 137.833C24.1169 140.694 14.516 135.254 6.15221 125.721Z" fill="#E5E5FF"/>
<path d="M-14.1108 143.506C-22.1013 134.399 -26.3718 124.923 -23.6164 122.311C-20.8242 119.663 -11.8977 125.054 -3.71258 134.384C4.47257 143.713 8.65604 153.265 5.66786 155.689C2.71915 158.081 -6.12037 152.614 -14.1108 143.506Z" fill="#4A53E2"/>
<path d="M2.77469 112.121L23.0328 93.5913L40.2131 113.174L19.2046 130.848L2.77469 112.121Z" fill="#1B136A"/>
<path d="M27.3622 107.12C22.6607 101.762 20.8077 95.6265 23.2463 93.3959C25.7108 91.1417 31.6129 93.7246 36.4051 99.1868C41.1973 104.649 42.9903 110.837 40.4345 112.987C37.9055 115.115 32.0636 112.479 27.3622 107.12ZM6.89607 125.076C2.40014 119.952 0.545861 114.16 2.77462 112.121C5.026 110.062 10.5799 112.608 15.1588 117.827C19.7377 123.046 21.5394 128.884 19.2047 130.848C16.8934 132.793 11.392 130.201 6.89607 125.076Z" fill="#1B136A"/>
<path d="M8.4176 91.9385L49.5166 52.9716L83.9336 92.2003L39.9501 127.88L8.4176 91.9385Z" fill="#4A53E2"/>
<path d="M16.1648 116.944C7.60753 107.191 4.10568 96.0266 8.41761 91.9384C12.8139 87.7701 23.6263 92.5201 32.4893 102.622C41.3523 112.724 44.655 124.063 39.9501 127.879C35.3356 131.623 24.7222 126.698 16.1648 116.944Z" fill="#4A53E2"/>
<path d="M55.9202 82.0654C46.6186 71.4632 43.6961 58.49 49.5167 52.9714C55.4787 47.3186 68.2952 51.6112 78.0105 62.6847C87.7258 73.7583 90.3141 87.0244 83.9336 92.2002C77.7046 97.2532 65.2219 92.6675 55.9202 82.0654Z" fill="#E5E5FF"/>
<path d="M79.0507 80.801L87.8034 73.1218L68.9363 51.6172L60.1837 59.2963L79.0507 80.801Z" fill="#4A53E2"/>
<path d="M87.6689 73.24C89.4078 71.7144 86.5938 65.6637 81.3838 59.7253C76.1738 53.7869 70.5407 50.2097 68.8018 51.7352C67.0629 53.2608 69.8769 59.3116 75.0869 65.2499C80.2969 71.1883 85.93 74.7656 87.6689 73.24Z" fill="#1B136A"/>
<path d="M79.0507 80.8009C80.3801 79.6346 77.2343 73.875 72.0243 67.9367C66.8143 61.9983 61.513 58.1298 60.1836 59.2962C58.8542 60.4626 62 66.2221 67.21 72.1604C72.42 78.0988 77.7213 81.9673 79.0507 80.8009Z" fill="#4A53E2"/>
<path d="M126.358 74.2939C126.358 74.2939 103.201 86.8155 79.7271 61.5338C69.9889 51.0458 67.1688 39.0408 66.6975 36.4349C64.6111 24.8993 67.3305 15.6409 68.8277 11.5052C88.0045 32.4348 107.181 53.3644 126.358 74.2939Z" fill="#4A53E2"/>
<path d="M126.358 74.2937C133.147 68.3376 126.055 49.1525 110.517 31.4425C94.9791 13.7326 76.8799 4.20429 70.0911 10.1604C63.3023 16.1166 70.3947 35.3017 85.9325 53.0116C101.47 70.7215 119.569 80.2499 126.358 74.2937Z" fill="#FFC750"/>
<path d="M85.3057 65.6565C88.0885 63.632 88.4137 59.3369 86.032 56.0631C83.6504 52.7892 79.4637 51.7763 76.6809 53.8008C73.8981 55.8252 73.5729 60.1203 75.9546 63.3942C78.3362 66.668 82.5229 67.6809 85.3057 65.6565Z" fill="#4A53E2"/>
<path d="M54.3207 124.393C45.7943 131.694 37.2678 138.996 28.7413 146.297C27.6518 147.23 27.3256 148.779 27.9464 150.072C38.8746 172.836 49.803 195.6 60.7312 218.364C61.6188 220.213 64.0031 220.743 65.5904 219.444C79.4338 208.117 93.2773 196.79 107.121 185.463C108.501 184.333 108.677 182.286 107.508 180.938C91.2628 162.2 75.0175 143.462 58.7723 124.724C57.6318 123.408 55.6432 123.26 54.3207 124.393Z" fill="#B4B2FA"/>
<path d="M55.708 208.902C59.9833 205.508 64.2609 202.117 68.5377 198.725C70.6088 201.976 72.6801 205.232 74.8745 208.393C75.1227 208.751 75.7445 208.347 75.5171 207.973C73.5076 204.66 71.3471 201.43 69.2084 198.193L90.5218 181.226C92.0337 183.076 93.5464 184.926 95.0581 186.777C95.2929 187.064 95.7261 186.69 95.4944 186.402C93.9999 184.546 92.4976 182.697 91.0014 180.842C93.6744 178.704 96.3475 176.565 99.0206 174.426C99.299 174.203 98.9392 173.788 98.6608 174.007C95.9725 176.118 93.2894 178.236 90.6036 180.35C87.8593 176.949 85.1105 173.552 82.3634 170.154C85.0725 168.038 87.7761 165.916 90.482 163.796C90.8678 163.494 90.3721 162.922 89.9873 163.22C87.2752 165.32 84.5675 167.425 81.8579 169.528L65.9843 149.929L73.5805 144.608C73.8887 144.392 73.5058 143.955 73.2008 144.166C70.6585 145.918 68.1198 147.675 65.5787 149.428L56.6515 138.415L60.5381 135.768C61.6722 134.995 62.9096 134.282 63.9543 133.392C64.1633 133.213 63.9377 132.854 63.6878 132.984C62.8261 133.433 63.1392 133.288 56.24 137.907C53.8781 134.993 51.5162 132.079 49.1542 129.165C48.8678 128.812 48.3332 129.273 48.6189 129.625C50.9653 132.516 53.3116 135.407 55.658 138.298L37.9187 150.226C36.8889 148.652 35.8597 147.079 34.8262 145.508C34.6464 145.235 34.1644 145.547 34.3426 145.824C35.3592 147.409 36.3809 148.991 37.4006 150.574C35.7517 151.683 34.1026 152.792 32.4547 153.903C32.0743 154.16 32.5432 154.698 32.9194 154.444C34.5402 153.352 36.1615 152.26 37.783 151.168C40.3773 155.194 42.9766 159.217 45.5798 163.237C43.5057 164.669 41.4299 166.098 39.3603 167.536C38.9265 167.838 39.4654 168.457 39.895 168.159C41.9347 166.742 43.9689 165.317 46.0058 163.895L60.4364 186.176L49.0571 195.028C48.616 195.371 49.1831 196.027 49.6217 195.685C53.3812 192.754 57.1406 189.823 60.9 186.892L68.1295 198.086L55.2033 208.314C54.8116 208.624 55.3184 209.211 55.708 208.902ZM38.3058 150.816C44.2349 146.824 50.1628 142.829 56.0717 138.808C59.0512 142.479 62.0307 146.15 65.0102 149.821L46.1544 162.84L38.3058 150.816ZM46.5807 163.494C52.8634 159.109 59.1398 154.715 65.4189 150.324L81.3347 169.934C74.5704 175.185 67.8095 180.44 61.0509 185.698L46.5807 163.494ZM61.5159 186.412L81.8434 170.561L90.1183 180.732C83.0035 186.334 75.8948 191.943 68.7929 197.561L61.5159 186.412Z" fill="#E5E5FF"/>
<path d="M39.0946 137.199C39.8732 136.654 40.7284 136.91 41.1458 137.506L85.7159 201.148C86.1684 201.794 86.0114 202.685 85.3654 203.137C84.5868 203.683 83.7315 203.426 83.3141 202.83L38.744 139.188C38.2916 138.542 38.4485 137.652 39.0946 137.199Z" fill="#4A53E2"/>
<path d="M39.0946 137.199C39.8732 136.654 40.7284 136.91 41.1458 137.506L85.7159 201.148C86.1684 201.794 86.0114 202.685 85.3654 203.137C84.5868 203.683 83.7315 203.426 83.3141 202.83L38.744 139.188C38.2916 138.542 38.4485 137.652 39.0946 137.199Z" fill="#AACAE2"/>
<path d="M94.7917 56.8903C96.339 55.5328 94.7998 51.2482 91.3538 47.3205C87.9078 43.3928 83.8599 41.3092 82.3126 42.6667C80.7653 44.0243 82.3045 48.3088 85.7505 52.2366C89.1965 56.1643 93.2443 58.2479 94.7917 56.8903Z" fill="#1B136A"/>
<path d="M126.047 73.3183C125.578 73.3183 125.234 72.8752 125.352 72.4214L141.48 10.1458L71.1046 12.3978C70.7167 12.4086 70.3778 12.1005 70.3652 11.7042C70.3526 11.3085 70.663 10.9774 71.0588 10.9648L142.391 8.68188C142.869 8.66696 143.228 9.1147 143.108 9.57813L126.74 72.7808C126.657 73.1038 126.365 73.3183 126.047 73.3183Z" fill="#FFAA00"/>
<path d="M78.627 42.3891C77.8747 42.3891 77.6317 41.3718 78.303 41.0322L142.09 8.75876C142.444 8.57997 142.875 8.72165 143.054 9.07478C143.233 9.42814 143.091 9.85946 142.737 10.0382L78.627 42.3891Z" fill="#FFAA00"/>
<path d="M141.842 15.8307L145.754 12.3984C147.969 10.4552 148.189 7.08453 146.246 4.86971L146.058 4.65601C144.115 2.44118 140.745 2.22095 138.53 4.16413L134.618 7.59641C132.403 9.53958 132.183 12.9103 134.126 15.1251L134.313 15.3388C136.256 17.5537 139.627 17.7739 141.842 15.8307Z" fill="#FFAA00"/>
<path d="M15.3027 147.873C8.59741 143.285 -9.60397 129.667 -14.7588 113.91L-19.0215 117.954C-12.8117 133.416 3.30308 146.087 10.9232 151.426L15.3027 147.873ZM37.7534 64.1245L33.0941 68.542C36.832 85.2991 49.7577 98.7815 64.1659 108.236L68.5885 104.648C53.819 95.3335 40.0403 81.3647 37.7534 64.1245Z" fill="#FFAA00"/>
<path d="M126.721 56.7132C123.551 48.4685 117.224 37.96 109.02 29.3217C108.729 29.0151 108.232 29.4382 108.52 29.7515C114.256 35.9831 119.143 42.9831 122.975 50.5376C124.062 52.6801 125.009 54.8754 125.975 57.0733C126.192 57.5675 126.909 57.2039 126.721 56.7132ZM109.286 71.836C111.148 72.9225 113.011 74.0081 114.877 75.0882C115.233 75.2941 115.594 74.7694 115.237 74.5538C113.358 73.4188 111.476 72.2897 109.593 71.1612C107.769 70.0682 105.96 68.8241 104.031 67.9262C103.682 67.7635 103.456 68.3024 103.743 68.5126C105.464 69.7753 107.443 70.7608 109.286 71.836ZM70.5865 28.0349C70.5397 27.2673 69.2286 25.6621 68.6911 21.4051C68.5911 20.6132 68.5642 19.8224 68.4965 19.0286C68.4639 18.6467 67.8731 18.7094 67.8438 19.0711C67.644 21.5422 68.431 24.8289 69.4127 27.1762C69.5547 27.5158 69.6938 27.9914 69.9735 28.2402C70.1654 28.4109 70.6076 28.3806 70.5865 28.0349ZM134.638 10.6712C136.142 8.55799 137.524 6.16821 139.997 5.0543C141.932 4.18269 144.71 4.34206 145.959 6.27259C146.188 6.62745 146.789 6.34768 146.56 5.98258C145.219 3.84836 142.422 3.40768 140.161 4.16523C137.39 5.09356 135.423 7.82971 133.995 10.2389C133.742 10.6655 134.347 11.0801 134.638 10.6712ZM71.4624 89.6485C74.2019 90.7585 77.2957 91.6555 80.2636 91.043C83.0889 90.4599 85.901 88.1048 85.8381 85.0158C85.8292 84.5788 85.1715 84.5213 85.1493 84.9722C85.0122 87.7575 82.6355 89.7873 80.0149 90.2773C77.2114 90.8015 74.3037 89.9145 71.724 88.8678C66.5044 86.7501 61.92 83.1645 58.5061 78.6942C55.7104 75.0334 54.9194 72.5276 53.8691 70.2919C53.7038 69.94 53.1137 70.1201 53.2125 70.5107C53.5917 72.0112 54.2969 73.4434 55.0229 74.8044C58.5181 81.3556 64.3551 86.7688 71.4624 89.6485ZM50.1999 61.5295C50.1841 61.3173 50.1979 61.0701 50.2743 60.8968C50.3588 60.7053 50.3522 60.5532 50.5113 60.268C50.7833 59.778 51.112 59.5206 51.4715 59.3542C51.667 59.2638 51.7498 59.0133 51.6573 58.8218C51.5622 58.6245 51.3208 58.5453 51.1248 58.636C50.5786 58.8887 50.1132 59.3289 49.8294 59.8601C49.6916 60.118 49.5218 60.4501 49.5246 60.7502C49.5274 61.0567 49.5043 61.3485 49.5679 61.6532C49.6476 62.0357 50.2349 61.9976 50.1999 61.5295ZM38.3174 125.954C38.9133 125.545 69.725 100.828 74.0949 97.1754C74.4152 96.9076 74.0015 96.4353 73.6752 96.6867C64.2932 103.911 56.8842 110.052 41.8059 122.148C40.4794 123.212 39.0703 124.222 37.8277 125.383C37.4669 125.72 37.9255 126.223 38.3174 125.954ZM21.4851 118.025C17.2177 114.555 13.4171 109.639 11.046 104.029C10.7196 103.257 10.5095 102.329 10.0579 101.625C9.83584 101.279 9.34144 101.43 9.37962 101.851C9.45417 102.674 9.91814 103.55 10.2375 104.304C12.6773 110.067 16.4083 114.74 21.1727 118.489C21.4572 118.713 21.7618 118.25 21.4851 118.025ZM21.2868 136.77C22.8727 137.224 24.6653 136.44 25.6864 135.21C26.7729 133.903 26.9761 132.016 26.3199 130.47C26.1569 130.085 25.5872 130.368 25.7397 130.75C26.2696 132.075 26.0348 133.662 25.1207 134.765C24.1918 135.885 22.8009 136.216 21.4066 136.158C21.0612 136.144 20.9335 136.669 21.2868 136.77ZM3.40362 153.328C4.0201 153.034 4.05153 152.954 7.26307 150.598C12.5553 146.715 15.8682 144.303 18.8149 142.04C19.1642 141.771 18.7247 141.284 18.3751 141.528C15.7743 143.342 13.215 145.216 10.6549 147.087C3.20511 152.531 3.48064 152.273 3.02873 152.755C2.77493 153.026 3.0269 153.507 3.40362 153.328ZM-17.6305 116.795C-16.683 116.104 -16.3126 115.68 -13.5028 113.146C-13.0657 112.751 -12.5479 112.356 -12.2031 111.877C-12.0552 111.671 -12.3056 111.371 -12.5327 111.496C-12.9904 111.749 -13.0924 111.888 -15.3109 113.823C-16.2322 114.627 -17.2262 115.4 -18.0602 116.295C-18.3475 116.603 -17.978 117.049 -17.6305 116.795ZM-8.77498 83.4122C-9.06034 82.5892 -16.4978 64.9336 -16.518 64.8857C-17.5075 62.5351 -18.6507 60.0261 -18.5506 57.4171C-18.4989 56.0671 -18.0448 54.8174 -17.179 53.7738C-16.1591 52.5445 -14.7549 51.6735 -13.4471 50.7864L-6.4669 46.0234C-5.71646 45.5104 -4.85324 45.0549 -4.31998 44.3099C-4.19526 44.1356 -4.36589 43.8684 -4.57855 43.9203C-5.3562 44.1098 -5.63686 44.3817 -8.89572 46.5581C-10.3571 47.534 -11.82 48.5076 -13.2779 49.4888C-15.8016 51.1873 -18.7375 52.8861 -19.4125 56.1012C-20.2067 59.8844 -18.2263 63.5487 -14.3256 72.8678C-10.2966 82.4953 -10.5019 82.224 -9.69358 83.8556C-9.39426 84.4596 -8.5654 84.0164 -8.77498 83.4122ZM30.401 55.1523C30.5437 54.4481 30.4279 54.1531 29.86 50.1635C29.4254 47.1105 29.3024 46.0347 29.0136 45.1937C28.8892 44.8316 28.3341 44.9874 28.3146 45.3305C28.2685 46.1454 28.4311 46.9864 28.5228 47.7954C28.5864 48.3564 29.1803 52.7639 29.3701 53.9846C29.4331 54.3901 29.473 54.831 29.6637 55.199C29.807 55.4757 30.3274 55.5155 30.401 55.1523ZM88.0836 200.554L103.527 188.126C105.012 186.924 106.753 185.703 107.435 183.835C108.511 180.888 106.264 178.078 104.447 175.997C86.1178 155.003 87.2291 156.228 85.9192 154.948C85.6195 154.655 85.1739 155.033 85.4246 155.373C87.6401 158.374 103.69 176.317 105.255 178.516C106.072 179.663 106.824 181.05 106.726 182.503C106.592 184.485 104.816 185.717 103.396 186.847L87.339 199.687C86.764 200.148 87.5112 201.013 88.0836 200.554ZM67.8477 217.275C68.5072 216.929 68.8229 216.565 70.9185 214.603C73.1389 212.524 73.4379 212.285 73.8282 211.742C74.0255 211.467 73.6852 211.035 73.3774 211.222C72.7951 211.575 72.2739 212.086 71.7721 212.545C67.8545 216.124 67.7586 216.153 67.3873 216.743C67.2021 217.038 67.5163 217.449 67.8477 217.275ZM48.9249 193.184C48.105 191.119 46.9706 189.136 45.9924 187.14L35.3889 165.54C34.8432 164.435 34.374 163.214 33.6412 162.218C33.4429 161.948 32.9552 162.182 33.0474 162.506C33.3196 163.462 33.3794 163.41 35.8306 168.447C35.8543 168.495 47.8397 193.015 48.1582 193.554C48.4368 194.026 49.1282 193.696 48.9249 193.184Z" fill="#1B136A"/>
<path d="M15.8107 129.144C16.805 128.504 17.6394 127.581 18.5037 126.779C20.4362 124.984 20.7702 124.646 21.0513 124.253C21.2521 123.972 20.9057 123.531 20.5908 123.721C20.0683 124.038 19.5377 124.526 17.8827 126.055C15.972 127.821 15.6955 128.047 15.3065 128.562C15.079 128.863 15.4743 129.36 15.8107 129.144ZM92.638 52.547C91.2095 51.1456 89.5866 49.9511 88.0573 48.6625C87.795 48.4416 87.5117 48.8809 87.762 49.1015C89.2439 50.4079 90.6464 51.8216 92.2239 53.0128C92.5029 53.2234 92.8928 52.7971 92.638 52.547Z" fill="#E5E5FF"/>
<path d="M89.1724 121.65C99.8858 122.951 110.262 123.919 129.227 125.819C129.542 125.85 129.571 125.364 129.258 125.329C123.193 124.649 95.2006 121.542 89.2135 120.999C88.7937 120.961 88.7578 121.599 89.1724 121.65ZM99.8683 137.438C100.208 137.605 100.392 137.044 100.056 136.878C96.7846 135.263 93.5297 133.609 90.2326 132.047C89.9429 131.91 89.6919 132.411 89.9808 132.559C93.2515 134.233 96.571 135.817 99.8683 137.438ZM101.76 146.573C98.2245 143.965 94.7513 141.222 91.1057 138.77C90.7235 138.514 90.3636 139.075 90.7119 139.356C94.132 142.116 97.7782 144.626 101.315 147.235C101.728 147.54 102.172 146.878 101.76 146.573ZM49.1776 37.6447C48.5518 34.4924 45.7671 22.2705 44.8811 18.6297C44.7881 18.2476 44.1987 18.3585 44.2791 18.7475C45.0685 22.568 47.7926 34.8077 48.538 37.7698C48.6397 38.1744 49.2598 38.0593 49.1776 37.6447ZM41.6062 42.5902C40.5375 40.0014 39.2807 37.494 38.0707 34.9693C37.8078 34.4208 36.957 34.8325 37.2212 35.3793C38.4392 37.9001 39.6146 40.4464 40.9708 42.8968C41.1913 43.2954 41.7797 43.0102 41.6062 42.5902ZM-35.3418 93.0477C-32.7635 93.7328 -30.1246 94.2125 -27.5141 94.7605C-24.9628 95.296 -22.3931 95.9791 -19.8079 96.318C-19.4717 96.3621 -19.3709 95.8331 -19.694 95.7359C-22.2361 94.9712 -24.9102 94.535 -27.5031 93.9675C-30.0629 93.4073 -32.6198 92.7785 -35.2061 92.3537C-35.6025 92.2885 -35.7316 92.9442 -35.3418 93.0477ZM-36.2218 105.586C-34.2509 105.559 -34.4539 105.479 -24.6725 104.771C-24.2683 104.742 -24.3952 104.128 -24.7932 104.154C-34.4598 104.794 -34.3578 104.694 -36.2643 104.933C-36.6319 104.979 -36.5978 105.591 -36.2218 105.586ZM-36.1354 121.831C-34.9199 121.583 -34.7416 121.47 -28.1651 119.413C-27.6526 119.253 -27.8072 118.425 -28.327 118.585C-34.9549 120.627 -35.2007 120.645 -36.3661 121.138C-36.7542 121.303 -36.5412 121.914 -36.1354 121.831Z" fill="#1B136A"/>
</g>
<defs>
<clipPath id="clip0_108_146">
<rect width="150" height="150" fill="white"/>
</clipPath>
</defs>
</svg>
