<svg width="32" height="32" viewBox="0 0 32 32" fill="none" xmlns="http://www.w3.org/2000/svg">
<g clip-path="url(#clip0_131_463)">
<rect width="32" height="32" fill="white"/>
<path d="M94.8296 -63.292H-63.9264V111.813H94.8296V-63.292Z" fill="#E5E5FF"/>
<path d="M82.4603 -52.3246H-51.557V81.6927H82.4603V-52.3246Z" fill="#B4B2FA"/>
<path d="M23.5499 30.0623H8.65173V52.8541H23.5499V30.0623Z" fill="#FFAA00"/>
<path d="M38.436 16.9722C37.9037 9.7743 36.7242 2.16832 31.2163 -2.52781C25.7057 -7.22615 17.8334 -7.59889 10.623 -7.21598C7.87083 -7.06982 5.08084 -6.79698 2.52647 -5.69033C-0.242388 -4.49072 -2.60061 -2.0982 -2.98569 0.886689C-3.05703 1.43976 -2.96657 1.95333 -2.9086 2.49562C-5.56824 8.7913 -6.8677 15.7975 -6.83627 22.1441C-6.80839 27.7769 -5.21316 31.479 0.433577 34.9284C6.62954 38.7132 14.9871 40.4181 23.1497 38.7761C31.0022 37.1965 37.7025 33.0215 38.5894 25.0609C38.888 22.3816 38.6341 19.6507 38.436 16.9722Z" fill="#FFC750"/>
<path d="M41.3044 12.4115C40.4031 12.0358 39.302 12.3471 38.5665 12.9412C37.8016 13.5592 37.3986 14.581 37.4747 15.5532C37.4936 15.7948 37.7542 15.9018 37.9379 15.7451C38.3463 15.3968 39.068 15.494 39.3592 15.9486C39.6697 16.4336 39.4016 17.0409 38.9607 17.3291C38.7117 17.4918 38.866 17.9616 39.1758 17.8392C40.0031 17.5125 40.329 16.3719 39.8352 15.6347C39.436 15.0388 38.6632 14.8585 38.0252 15.0904C38.0877 14.4209 38.3951 13.7932 38.9178 13.3466C39.5771 12.7833 40.4234 12.6953 41.2549 12.777C41.4831 12.7994 41.4793 12.4844 41.3044 12.4115ZM-9.43054 12.4115C-8.52923 12.0358 -7.4281 12.3471 -6.69265 12.9412C-5.92774 13.5592 -5.52476 14.581 -5.60083 15.5532C-5.61975 15.7948 -5.88035 15.9018 -6.06406 15.7451C-6.47245 15.3968 -7.19414 15.494 -7.48529 15.9486C-7.79583 16.4336 -7.52778 17.0409 -7.08683 17.3291C-6.83787 17.4918 -6.99215 17.9616 -7.3019 17.8392C-8.12922 17.5125 -8.45514 16.3719 -7.9613 15.6347C-7.56218 15.0388 -6.78931 14.8585 -6.15131 15.0904C-6.21381 14.4209 -6.52123 13.7932 -7.04389 13.3466C-7.70321 12.7833 -8.54951 12.6953 -9.38107 12.777C-9.60925 12.7994 -9.60541 12.4844 -9.43054 12.4115Z" fill="#1B136A"/>
<path d="M7.54404 17.5356C8.58973 17.5356 9.43741 16.688 9.43741 15.6423C9.43741 14.5966 8.58973 13.7489 7.54404 13.7489C6.49836 13.7489 5.65067 14.5966 5.65067 15.6423C5.65067 16.688 6.49836 17.5356 7.54404 17.5356Z" fill="#1B136A"/>
<path d="M24.3472 17.3662C25.3929 17.3662 26.2406 16.5185 26.2406 15.4728C26.2406 14.4272 25.3929 13.5795 24.3472 13.5795C23.3016 13.5795 22.4539 14.4272 22.4539 15.4728C22.4539 16.5185 23.3016 17.3662 24.3472 17.3662Z" fill="#1B136A"/>
<path d="M27.3343 11.7618C26.9815 11.3241 26.5427 10.9445 25.3411 10.7378C24.6137 10.6127 23.7387 10.5608 23.0421 10.8427C22.883 10.907 22.7678 11.0385 22.7952 11.2209C22.8189 11.3786 22.9602 11.5333 23.1337 11.5198C23.7382 11.4725 24.7109 11.2149 26.1265 11.7982C26.4564 11.9341 26.7861 12.0168 27.1262 12.1192C27.3486 12.1862 27.4586 11.9161 27.3343 11.7618ZM7.46188 10.9939C7.54923 10.9369 7.53464 10.8085 7.46353 10.7482C7.4763 10.759 7.39566 10.643 7.38519 10.6339C7.25141 10.5164 7.10871 10.5078 6.93427 10.489C5.54465 10.3397 3.64911 11.3488 3.33659 12.298C3.25972 12.5315 3.47286 12.8145 3.7302 12.6955C4.06467 12.5408 4.33362 12.2856 4.64513 12.0911C6.26576 11.0791 7.05303 11.3685 7.3821 11.0932C7.3983 11.0796 7.51692 10.958 7.46188 10.9939Z" fill="#1B136A"/>
<path d="M1.10918 22.7977C3.12878 22.7977 4.76599 21.6198 4.76599 20.1668C4.76599 18.7138 3.12878 17.5359 1.10918 17.5359C-0.910423 17.5359 -2.54764 18.7138 -2.54764 20.1668C-2.54764 21.6198 -0.910423 22.7977 1.10918 22.7977Z" fill="#FF6B35"/>
<path d="M29.8975 22.7977C31.9171 22.7977 33.5544 21.6198 33.5544 20.1668C33.5544 18.7138 31.9171 17.5359 29.8975 17.5359C27.8779 17.5359 26.2407 18.7138 26.2407 20.1668C26.2407 21.6198 27.8779 22.7977 29.8975 22.7977Z" fill="#FF6B35"/>
<path d="M23.8476 21.6999C23.2324 22.5587 22.8618 23.6751 21.743 24.8494C18.8963 27.8371 14.7125 28.1916 11.3699 25.9967C9.91862 25.0436 9.3032 24.1299 8.43609 22.7801C8.25634 22.5003 7.78447 22.6731 7.88429 23.0127C8.28278 24.3691 9.30718 25.5822 10.3982 26.4526C14.18 29.4697 19.0038 28.9278 22.1564 25.9457C23.2051 24.9537 24.4423 23.2824 24.3868 21.8459C24.3751 21.5452 24.0119 21.4705 23.8476 21.6999ZM17.8365 18.4049C17.6751 17.574 16.8837 17.1962 16.4641 16.5294C16.0114 15.8106 16.0504 15.0536 16.1454 14.2475C16.1808 13.9463 15.7521 13.8878 15.6134 14.1035C15.2374 14.6884 15.2314 15.5038 15.4142 16.1587C15.7937 17.5163 17.0056 17.9749 16.9845 18.7411C16.967 19.3894 16.3145 19.786 15.6552 19.903C15.2728 19.9711 14.7628 19.8709 14.4411 20.1183C14.2155 20.2918 14.1392 20.5818 14.3522 20.8081C14.6948 21.1715 15.3036 21.0975 15.751 21.0275C17.2569 20.7918 18.0505 19.5062 17.8365 18.4049Z" fill="#1B136A"/>
<path d="M40.8248 -3.66253C40.3049 -5.78084 38.5859 -7.36267 36.5404 -7.92838C36.7114 -8.78503 36.508 -9.67695 35.9956 -10.431C34.0977 -13.2239 30.2994 -12.2296 28.0746 -12.0573C24.2509 -11.7609 23.0962 -13.9242 20.6691 -15.8791C14.5474 -20.8107 5.75092 -18.5891 2.5369 -11.7478C0.159342 -12.6088 -2.93681 -13.12 -4.89578 -11.1247C-5.99508 -10.0048 -6.21192 -8.06369 -5.30668 -6.83196C-6.49024 -6.45661 -7.49073 -5.53792 -7.91508 -4.34283C-8.67205 -2.21167 -6.93169 -0.370043 -7.92083 2.22523C-8.71189 4.30031 -10.4063 6.20919 -10.0275 8.57878C-9.8175 9.89176 -8.66496 11.274 -7.32384 11.3778C-6.40131 11.9446 -4.96687 12.0301 -4.11735 11.9059C-2.22206 11.629 -0.776644 10.3622 0.26364 8.81401C2.06296 6.13508 3.88629 0.271259 4.58727 -2.69127C6.62826 -0.656717 9.92058 -0.00540902 12.7937 -1.45748C14.131 -2.13326 16.1363 -4.70432 17.7055 -3.30172C19.1548 -2.00658 18.7022 0.392796 19.9299 1.87582C20.979 3.14323 22.9083 3.75244 24.4144 2.99488C26.5762 5.67561 28.998 3.9571 31.3234 3.83753C34.1906 3.69014 34.0223 6.64863 34.3369 8.68418C34.4788 9.60246 34.7876 10.4919 35.4293 11.1776C36.3448 12.7669 38.4847 12.4415 39.6511 11.0631C41.8418 8.47379 40.2328 4.92366 38.7083 2.3729C40.4688 0.948896 41.3751 -1.42084 40.8248 -3.66253Z" fill="#0AB7B7"/>
<path d="M-32.2681 62.2588C-32.5879 60.2886 -32.8259 58.277 -33.3655 56.3522C-33.4687 55.9838 -34.0643 56.0448 -34.0471 56.4445C-33.9132 59.5436 -26.1263 106.642 -25.5933 109.369C-25.5222 109.733 -24.8912 109.656 -24.9379 109.28C-25.8247 102.138 -31.1543 69.1216 -32.2681 62.2588ZM-21.0776 125.268C-21.6579 123.06 -21.4416 123.732 -22.1895 121.575C-22.5687 120.483 -22.5781 120.604 -22.7678 120.373C-22.9849 120.109 -23.3964 120.339 -23.4052 120.637C-23.4173 121.049 -23.4714 120.859 -22.7028 123.131C-22.4242 123.954 -22.0522 124.736 -21.7119 125.535C-21.5543 125.904 -20.9807 125.637 -21.0776 125.268ZM71.5736 -43.9294C71.1415 -42.0393 65.1531 -5.09533 65.5347 -7.44993C65.292 -5.95263 64.9119 -4.41567 64.9094 -2.89573C64.9089 -2.46384 65.5122 -2.40332 65.6428 -2.79651C66.0191 -3.93044 65.9701 -4.12638 67.0561 -10.7871L70.934 -34.8586C71.4097 -37.8355 72.0207 -40.8281 72.3155 -43.8291C72.3569 -44.2536 71.6674 -44.3409 71.5736 -43.9294ZM63.8702 3.1143C63.6624 3.1143 63.5334 3.27804 63.5145 3.47004C63.3839 4.81417 63.2518 6.15116 63.2145 7.50175C63.204 7.88466 63.8155 8.0018 63.882 7.50175C64.0591 6.16104 64.142 4.81911 64.226 3.47004C64.238 3.27804 64.0541 3.1143 63.8702 3.1143Z" fill="#E5E5FF"/>
<path d="M-57.1666 -44.5741C-57.1751 -45.0992 -57.9908 -45.1009 -57.9834 -44.5741C-57.7934 -31.1619 -57.0972 20.0146 -56.8707 25.6295C-56.8518 26.1023 -56.1376 26.1067 -56.1329 25.6295C-56.0696 19.1228 -57.1679 -44.657 -57.1666 -44.5741ZM-57.6774 31.8952C-57.7345 31.6575 -58.0037 31.516 -58.2338 31.5793C-58.483 31.6476 -58.5988 31.8955 -58.5497 32.1356C-58.4083 32.8288 -58.0989 34.4359 -57.8314 35.1457C-57.6401 35.6531 -57.0082 35.4242 -57.0379 35.0383C-57.1002 34.2282 -57.4887 32.6792 -57.6774 31.8952ZM47.8499 79.8185L-17.2963 80.7242C-17.8266 80.7358 -17.829 81.5518 -17.2963 81.5498C-0.670145 81.485 9.63763 81.2615 47.8499 80.7759C48.4655 80.7682 48.4672 79.8105 47.8499 79.8185ZM34.7964 75.0735C34.3273 72.9288 33.6579 71.1713 33.5719 67.4777C33.5124 64.8974 33.8459 62.3358 34.5447 59.8522C34.7072 59.2744 33.8118 59.0289 33.6469 59.6048C31.8938 65.7212 32.5498 71.9678 34.074 75.3781C34.2647 75.8045 34.8875 75.4895 34.7964 75.0735ZM-0.186225 73.7805C-0.608731 68.8525 -0.54895 68.9361 -0.75687 68.5977C-0.938028 68.3024 -1.32285 68.3975 -1.43896 68.6868C-1.60063 69.0896 -1.47986 69.5847 -1.44555 70.0091C-0.81296 77.8837 -0.920466 77.6498 -0.677001 79.3098C-0.59795 79.8484 0.2738 79.7124 0.263369 79.1825C0.227961 77.387 -0.0327903 75.5701 -0.186225 73.7805ZM92.2469 92.3912L91.9623 68.9635C91.9565 68.506 91.2462 68.5047 91.2508 68.9635C91.5505 100.197 91.4629 98.0316 91.6085 100.201C91.6376 100.633 92.265 100.638 92.2848 100.201C92.4026 97.6057 92.2785 94.9884 92.2469 92.3912ZM87.4325 106.886C86.8808 106.699 86.3152 106.642 85.5619 106.543C85.3242 106.511 85.2269 106.481 85.0953 106.521C85.1124 106.517 85.1294 106.513 85.1461 106.508C85.1346 106.522 84.9839 106.497 84.9614 106.495C84.7091 106.477 84.4926 106.703 84.461 106.937C84.43 107.169 84.576 107.45 84.8258 107.496C84.8708 107.504 84.9402 107.531 84.9853 107.525C85.0226 107.535 85.0165 107.528 84.9669 107.505C85.0796 107.576 85.1711 107.572 85.5156 107.614C86.1757 107.695 86.7248 107.783 87.317 107.74C87.8321 107.702 87.9045 107.046 87.4325 106.886ZM71.2994 60.7821C71.04 60.6452 70.735 60.7218 70.5783 60.9713C69.5848 62.5526 69.4227 62.7856 69.2882 63.1053C69.2885 63.1049 69.2204 63.2416 69.2526 63.181C69.0982 63.4726 69.1495 63.357 68.9602 63.8157C68.8922 63.9797 69.0058 64.1938 69.1477 64.277C69.2976 64.3645 69.5235 64.3475 69.6426 64.2131C70.3456 63.4219 70.5278 63.0486 71.4885 61.5032C71.6342 61.2688 71.5464 60.9126 71.2994 60.7821ZM73.507 64.1514C73.2531 64.0935 73.0209 64.228 72.9399 64.4735C72.4135 66.0675 72.3314 66.2399 72.3086 66.6113C72.2985 66.7804 72.4409 66.9634 72.6053 67.0009C73.1201 67.1182 73.2104 66.5589 73.8292 64.7186C73.9061 64.4898 73.7406 64.2046 73.507 64.1514ZM-47.5304 -42.98C-47.5748 -43.1644 -47.784 -43.2743 -47.9627 -43.2253C-48.1559 -43.1721 -48.2459 -42.9797 -48.2081 -42.793C-47.8023 -40.8024 -47.7409 -40.3702 -47.5405 -39.7689C-47.3944 -39.3304 -46.8011 -39.5174 -46.8417 -39.8635C-46.9267 -40.593 -47.0726 -41.0772 -47.5304 -42.98ZM-42.1437 -37.6092C-42.3352 -38.0885 -42.4152 -38.2016 -43.8257 -40.7392C-44.0782 -41.1939 -44.7765 -40.7868 -44.5234 -40.3313C-43.151 -37.8616 -43.1173 -37.7466 -42.8098 -37.3284C-42.5039 -36.9117 -42.0231 -37.3088 -42.1437 -37.6092ZM-74.362 -26.9589C-78.2578 -27.8706 -78.9305 -27.916 -100.453 -31.8742C-101.077 -31.9889 -101.345 -31.0348 -100.717 -30.9171C-78.6092 -26.7733 -78.5481 -26.6858 -74.5884 -26.1372C-74.0634 -26.0645 -73.8128 -26.8303 -74.362 -26.9589ZM-76.002 -38.0385C-77.9671 -39.7457 -78.5622 -40.124 -89.3437 -48.4141C-89.7469 -48.7242 -90.2975 -48.0187 -89.8919 -47.7036C-78.8864 -39.1574 -78.5653 -38.8345 -76.4862 -37.4107C-76.1146 -37.1563 -75.6589 -37.7404 -76.002 -38.0385ZM-71.6509 -50.3429C-74.7136 -56.0999 -78.1734 -61.6625 -81.4694 -67.2883C-81.8092 -67.8683 -82.7136 -67.3425 -82.3719 -66.7607C-79.0696 -61.1385 -75.9024 -55.4041 -72.3717 -49.9217C-72.0811 -49.4705 -71.3979 -49.8668 -71.6509 -50.3429ZM130.231 73.575C126.506 71.1569 126.829 71.4807 104.726 58.3125C104.278 58.0456 103.872 58.7426 104.318 59.0102C126.312 72.212 125.932 72.1171 129.832 74.2575C130.28 74.5037 130.656 73.8514 130.231 73.575ZM112.992 75.1936C111.979 73.9734 111.714 73.7468 105.878 67.522C105.46 67.0757 104.79 67.7478 105.208 68.1928C111.13 74.499 111.267 74.6999 112.408 75.7775C112.801 76.1483 113.327 75.5971 112.992 75.1936ZM130.238 56.7394C128.433 55.8434 128.052 55.7437 117.757 51.5052C117.136 51.2493 116.865 52.26 117.48 52.5131C128.203 56.9277 128.03 56.9127 129.903 57.5342C130.366 57.6878 130.681 56.9596 130.238 56.7394ZM47.0089 121.531C46.4382 127.681 45.7125 133.84 45.3499 140.005C45.3219 140.483 46.0235 140.459 46.0789 140.005C46.8283 133.874 47.2213 127.684 47.7642 121.531C47.8071 121.046 47.0533 121.051 47.0089 121.531ZM69.0676 149.852C68.7165 148.48 68.0023 147.151 67.45 145.85C66.4376 143.465 58.2143 124.146 55.4489 118.106C55.2809 117.739 54.6392 118.003 54.7907 118.384C57.2417 124.545 67.1284 147.564 66.4926 146.087C67.0715 147.432 67.5532 148.92 68.3289 150.163C68.5702 150.55 69.1826 150.303 69.0676 149.852ZM73.1727 126.61C72.1629 125.616 72.0572 125.618 65.8298 120.518C65.3568 120.13 64.6756 120.805 65.1529 121.195C71.4977 126.381 71.5006 126.468 72.6723 127.259C73.0654 127.524 73.5021 126.935 73.1727 126.61Z" fill="#1B136A"/>
</g>
<defs>
<clipPath id="clip0_131_463">
<rect width="32" height="32" fill="white"/>
</clipPath>
</defs>
</svg>
