<svg width="148" height="40" viewBox="0 0 148 40" fill="none" xmlns="http://www.w3.org/2000/svg">
<path d="M127.654 26.3569C127.654 24.454 128.09 22.7889 128.963 21.3617C129.861 19.9345 131.064 18.8245 132.57 18.0316C134.103 17.2387 135.834 16.8423 137.764 16.8423C139.693 16.8423 141.411 17.2387 142.917 18.0316C144.45 18.8245 145.653 19.9345 146.525 21.3617C147.424 22.7889 147.873 24.454 147.873 26.3569C147.873 28.2334 147.424 29.8984 146.525 31.3521C145.653 32.7793 144.45 33.8893 142.917 34.6822C141.411 35.4751 139.693 35.8715 137.764 35.8715C135.834 35.8715 134.103 35.4751 132.57 34.6822C131.064 33.8893 129.861 32.7793 128.963 31.3521C128.09 29.8984 127.654 28.2334 127.654 26.3569ZM132.887 26.3569C132.887 27.3876 133.099 28.2995 133.522 29.0923C133.971 29.8588 134.566 30.4667 135.306 30.916C136.046 31.3388 136.865 31.5503 137.764 31.5503C138.662 31.5503 139.481 31.3388 140.222 30.916C140.962 30.4667 141.543 29.8588 141.966 29.0923C142.415 28.2995 142.64 27.3876 142.64 26.3569C142.64 25.3261 142.415 24.4143 141.966 23.6214C141.543 22.8286 140.962 22.2207 140.222 21.7978C139.481 21.3749 138.662 21.1635 137.764 21.1635C136.865 21.1635 136.046 21.3749 135.306 21.7978C134.566 22.2207 133.971 22.8286 133.522 23.6214C133.099 24.4143 132.887 25.3261 132.887 26.3569Z" fill="white"/>
<path d="M119.468 10.182C119.468 9.33625 119.772 8.64908 120.38 8.12049C120.988 7.56547 121.715 7.28796 122.561 7.28796C123.406 7.28796 124.12 7.56547 124.701 8.12049C125.309 8.64908 125.613 9.33625 125.613 10.182C125.613 11.0013 125.309 11.6885 124.701 12.2435C124.12 12.7985 123.406 13.076 122.561 13.076C121.715 13.076 120.988 12.7985 120.38 12.2435C119.772 11.6885 119.468 11.0013 119.468 10.182ZM120.023 17.2387H125.019V35.475H120.023V17.2387Z" fill="white"/>
<path d="M111.071 4.55249H116.225V35.475H111.071V4.55249Z" fill="white"/>
<path d="M88.5862 26.3569C88.5862 24.454 89.0222 22.7889 89.8944 21.3617C90.793 19.9345 91.9955 18.8245 93.502 18.0316C95.0349 17.2387 96.7661 16.8423 98.6954 16.8423C100.625 16.8423 102.343 17.2387 103.849 18.0316C105.382 18.8245 106.585 19.9345 107.457 21.3617C108.355 22.7889 108.805 24.454 108.805 26.3569C108.805 28.2334 108.355 29.8984 107.457 31.3521C106.585 32.7793 105.382 33.8893 103.849 34.6822C102.343 35.4751 100.625 35.8715 98.6954 35.8715C96.7661 35.8715 95.0349 35.4751 93.502 34.6822C91.9955 33.8893 90.793 32.7793 89.8944 31.3521C89.0222 29.8984 88.5862 28.2334 88.5862 26.3569ZM93.8192 26.3569C93.8192 27.3876 94.0306 28.2995 94.4535 29.0923C94.9028 29.8588 95.4975 30.4667 96.2375 30.916C96.9775 31.3388 97.7968 31.5503 98.6954 31.5503C99.594 31.5503 100.413 31.3388 101.153 30.916C101.893 30.4667 102.475 29.8588 102.898 29.0923C103.347 28.2995 103.572 27.3876 103.572 26.3569C103.572 25.3261 103.347 24.4143 102.898 23.6214C102.475 22.8286 101.893 22.2207 101.153 21.7978C100.413 21.3749 99.594 21.1635 98.6954 21.1635C97.7968 21.1635 96.9775 21.3749 96.2375 21.7978C95.4975 22.2207 94.9028 22.8286 94.4535 23.6214C94.0306 24.4143 93.8192 25.3261 93.8192 26.3569Z" fill="white"/>
<path d="M76.9239 17.2387H88.3414V21.5599H76.9239V17.2387ZM87.7864 9.70632C87.5221 9.30988 87.2182 9.04559 86.8746 8.91344C86.5574 8.75486 86.2403 8.67557 85.9231 8.67557C85.5267 8.67557 85.1831 8.78129 84.8924 8.99273C84.6281 9.17774 84.4166 9.49489 84.2581 9.94419C84.0995 10.3935 84.0202 10.9617 84.0202 11.6489V35.4751H79.0647V10.4992C79.0647 9.09845 79.3025 7.92233 79.7783 6.97087C80.254 6.01941 80.9676 5.2926 81.9191 4.79044C82.8705 4.26185 84.0334 3.99756 85.4077 3.99756C86.2271 3.99756 86.9274 4.10328 87.5089 4.31471C88.0903 4.49972 88.5793 4.73758 88.9757 5.02831C89.3986 5.31903 89.729 5.59654 89.9668 5.86084L87.7864 9.70632Z" fill="white"/>
<path d="M69.0552 10.182C69.0552 9.33625 69.3591 8.64908 69.967 8.12049C70.5749 7.56547 71.3017 7.28796 72.1474 7.28796C72.9932 7.28796 73.7068 7.56547 74.2882 8.12049C74.8961 8.64908 75.2 9.33625 75.2 10.182C75.2 11.0013 74.8961 11.6885 74.2882 12.2435C73.7068 12.7985 72.9932 13.076 72.1474 13.076C71.3017 13.076 70.5749 12.7985 69.967 12.2435C69.3591 11.6885 69.0552 11.0013 69.0552 10.182ZM69.6102 17.2387H74.6054V35.475H69.6102V17.2387Z" fill="white"/>
<path d="M45.2606 7.72412H51.0883V35.4751H45.2606V7.72412ZM60.9597 7.72412H67.6992L56.2024 20.7274L68.2939 35.4751H61.3958L49.4233 20.886L60.9597 7.72412Z" fill="white"/>
<path d="M21.639 26.7929C21.639 26.7929 23.1256 21.3418 21.1434 15.23C20.9291 14.5693 23.5966 11.1244 25.9363 8.72945C28.5767 6.02673 30.8873 5.86919 32.4444 7.28138C33.0265 7.80929 33.5274 8.60411 33.7064 10.4212C33.9193 12.5821 33.7302 15.6758 31.8996 19.4179C30.069 23.1599 26.5529 24.239 26.5529 24.239C26.5529 24.239 28.6336 25.8238 29.7163 27.5181C30.799 29.2124 31.0434 31.8288 29.8004 34.058C29.0807 35.3485 27.1603 37.176 23.997 36.2727C21.1726 35.4662 19.0218 32.5177 19.6568 31.418C20.7058 29.601 21.639 26.7929 21.639 26.7929Z" fill="url(#paint0_linear_106_81)"/>
<path d="M3.01438 33.2121C3.10536 35.1502 5.10564 37.3967 8.12724 37.6565C10.4774 37.8585 13.5902 36.053 15.7463 33.7569C18.3472 30.9873 19.4343 26.8428 19.6139 25.9204C19.7935 24.9979 21.5641 17.6026 15.9945 10.5518C12.7746 6.47553 8.02236 2.18313 3.18524 3.61236C1.86602 4.00215 -0.295825 5.83234 0.568964 14.3608C1.39916 22.5481 8.29563 24.6237 8.29563 24.6237C8.29563 24.6237 2.69327 26.372 3.01438 33.2121Z" fill="white"/>
<defs>
<linearGradient id="paint0_linear_106_81" x1="30.5591" y1="22.9784" x2="6.11196" y2="22.9784" gradientUnits="userSpaceOnUse">
<stop stop-color="white"/>
<stop offset="0.586181" stop-color="#195F5F"/>
<stop offset="0.837541" stop-color="#195F5F"/>
</linearGradient>
</defs>
</svg>
