<svg width="500" height="170" viewBox="0 0 500 170" fill="none" xmlns="http://www.w3.org/2000/svg">
<path d="M412.399 104.726C412.399 98.9661 413.719 93.9261 416.359 89.6061C419.079 85.2861 422.719 81.9261 427.279 79.5261C431.919 77.1261 437.159 75.9261 442.999 75.9261C448.839 75.9261 454.039 77.1261 458.599 79.5261C463.239 81.9261 466.879 85.2861 469.519 89.6061C472.239 93.9261 473.599 98.9661 473.599 104.726C473.599 110.406 472.239 115.446 469.519 119.846C466.879 124.166 463.239 127.526 458.599 129.926C454.039 132.326 448.839 133.526 442.999 133.526C437.159 133.526 431.919 132.326 427.279 129.926C422.719 127.526 419.079 124.166 416.359 119.846C413.719 115.446 412.399 110.406 412.399 104.726ZM428.239 104.726C428.239 107.846 428.879 110.606 430.159 113.006C431.519 115.326 433.319 117.166 435.559 118.526C437.799 119.806 440.279 120.446 442.999 120.446C445.719 120.446 448.199 119.806 450.439 118.526C452.679 117.166 454.439 115.326 455.719 113.006C457.079 110.606 457.759 107.846 457.759 104.726C457.759 101.606 457.079 98.8461 455.719 96.4461C454.439 94.0461 452.679 92.2061 450.439 90.9261C448.199 89.6461 445.719 89.0061 442.999 89.0061C440.279 89.0061 437.799 89.6461 435.559 90.9261C433.319 92.2061 431.519 94.0461 430.159 96.4461C428.879 98.8461 428.239 101.606 428.239 104.726Z" fill="#1B1B1B"/>
<path d="M387.621 55.7662C387.621 53.2062 388.541 51.1262 390.381 49.5262C392.221 47.8462 394.421 47.0062 396.981 47.0062C399.541 47.0062 401.701 47.8462 403.461 49.5262C405.301 51.1262 406.221 53.2062 406.221 55.7662C406.221 58.2462 405.301 60.3262 403.461 62.0062C401.701 63.6862 399.541 64.5262 396.981 64.5262C394.421 64.5262 392.221 63.6862 390.381 62.0062C388.541 60.3262 387.621 58.2462 387.621 55.7662ZM389.301 77.1262H404.421V132.326H389.301V77.1262Z" fill="#1B1B1B"/>
<path d="M362.204 38.7262H377.804V132.326H362.204V38.7262Z" fill="#1B1B1B"/>
<path d="M294.143 104.726C294.143 98.9661 295.463 93.9261 298.103 89.6061C300.823 85.2861 304.463 81.9261 309.023 79.5261C313.663 77.1261 318.903 75.9261 324.743 75.9261C330.583 75.9261 335.783 77.1261 340.343 79.5261C344.983 81.9261 348.623 85.2861 351.263 89.6061C353.983 93.9261 355.343 98.9661 355.343 104.726C355.343 110.406 353.983 115.446 351.263 119.846C348.623 124.166 344.983 127.526 340.343 129.926C335.783 132.326 330.583 133.526 324.743 133.526C318.903 133.526 313.663 132.326 309.023 129.926C304.463 127.526 300.823 124.166 298.103 119.846C295.463 115.446 294.143 110.406 294.143 104.726ZM309.983 104.726C309.983 107.846 310.623 110.606 311.903 113.006C313.263 115.326 315.063 117.166 317.303 118.526C319.543 119.806 322.023 120.446 324.743 120.446C327.463 120.446 329.943 119.806 332.183 118.526C334.423 117.166 336.183 115.326 337.463 113.006C338.823 110.606 339.503 107.846 339.503 104.726C339.503 101.606 338.823 98.8461 337.463 96.4461C336.183 94.0461 334.423 92.2061 332.183 90.9261C329.943 89.6461 327.463 89.0061 324.743 89.0061C322.023 89.0061 319.543 89.6461 317.303 90.9261C315.063 92.2061 313.263 94.0461 311.903 96.4461C310.623 98.8461 309.983 101.606 309.983 104.726Z" fill="#1B1B1B"/>
<path d="M258.843 77.1261H293.403V90.2061H258.843V77.1261ZM291.723 54.3261C290.923 53.1261 290.003 52.3261 288.963 51.9261C288.003 51.4461 287.043 51.2061 286.083 51.2061C284.883 51.2061 283.843 51.5261 282.963 52.1661C282.163 52.7261 281.523 53.6861 281.043 55.0461C280.563 56.4061 280.323 58.1261 280.323 60.2061V132.326H265.323V56.7261C265.323 52.4861 266.043 48.9261 267.483 46.0461C268.923 43.1661 271.083 40.9661 273.963 39.4461C276.843 37.8461 280.363 37.0461 284.523 37.0461C287.003 37.0461 289.123 37.3661 290.883 38.0061C292.643 38.5661 294.123 39.2861 295.323 40.1661C296.603 41.0461 297.603 41.8861 298.323 42.6861L291.723 54.3261Z" fill="#1B1B1B"/>
<path d="M235.024 55.7662C235.024 53.2062 235.944 51.1262 237.784 49.5262C239.624 47.8462 241.824 47.0062 244.384 47.0062C246.944 47.0062 249.104 47.8462 250.864 49.5262C252.704 51.1262 253.624 53.2062 253.624 55.7662C253.624 58.2462 252.704 60.3262 250.864 62.0062C249.104 63.6862 246.944 64.5262 244.384 64.5262C241.824 64.5262 239.624 63.6862 237.784 62.0062C235.944 60.3262 235.024 58.2462 235.024 55.7662ZM236.704 77.1262H251.824V132.326H236.704V77.1262Z" fill="#1B1B1B"/>
<path d="M163 48.3262H180.64V132.326H163V48.3262ZM210.52 48.3262H230.92L196.12 87.6862L232.72 132.326H211.84L175.6 88.1662L210.52 48.3262Z" fill="#1B1B1B"/>
<path d="M91.4992 106.046C91.4992 106.046 95.9992 89.5462 89.9992 71.0462C89.3505 69.0461 97.4249 58.6187 104.507 51.3695C112.499 43.1885 119.493 42.7117 124.207 46.9863C125.969 48.5842 127.485 50.9901 128.027 56.4904C128.671 63.031 128.099 72.3955 122.557 83.7225C117.016 95.0494 106.373 98.3157 106.373 98.3157C106.373 98.3157 112.672 103.113 115.949 108.241C119.226 113.37 119.966 121.289 116.203 128.037C114.025 131.943 108.212 137.475 98.6368 134.741C90.0877 132.3 83.5773 123.375 85.4992 120.046C88.6746 114.546 91.4992 106.046 91.4992 106.046Z" fill="#008A6B"/>
<path d="M35.124 125.477C35.3993 131.343 41.4541 138.143 50.6002 138.929C57.7139 139.541 67.1362 134.076 73.6628 127.126C81.5354 118.742 84.826 106.197 85.3696 103.405C85.9133 100.613 91.2726 78.2276 74.4139 56.8854C64.6674 44.547 50.2828 31.5542 35.6411 35.8804C31.648 37.0602 25.1042 42.6001 27.7218 68.415C30.2348 93.1973 51.11 99.4799 51.11 99.4799C51.11 99.4799 34.152 104.772 35.124 125.477Z" fill="#00664E"/>
</svg>
